<?xml version="1.0" encoding="UTF-8"?>
<svg id="Layer_1" xmlns="http://www.w3.org/2000/svg" version="1.1" xmlns:xlink="http://www.w3.org/1999/xlink" viewBox="0 0 1920 1080">
  <!-- Generator: Adobe Illustrator 29.8.2, SVG Export Plug-In . SVG Version: 2.1.1 Build 3)  -->
  <defs>
    <style>
      .st0 {
        fill: #00bcaa;
      }

      .st1 {
        fill: #00507e;
      }

      .st2 {
        clip-path: url(#clippath-4);
      }

      .st3 {
        fill: #00d9d9;
      }

      .st4 {
        fill: #fff9e9;
      }

      .st5 {
        fill: #fff;
      }

      .st6 {
        fill: none;
      }

      .st7 {
        fill: #fff9f4;
      }

      .st8 {
        clip-path: url(#clippath-1);
      }

      .st9 {
        clip-path: url(#clippath-5);
      }

      .st10 {
        fill: #ffd348;
      }

      .st11 {
        clip-path: url(#clippath-3);
      }

      .st12 {
        fill: #f24405;
      }

      .st13 {
        clip-path: url(#clippath-2);
      }

      .st14 {
        fill: #ff275a;
      }

      .st15 {
        clip-path: url(#clippath);
      }
    </style>
    <clipPath id="clippath">
      <path class="st6" d="M1437.63,0h0c0,33.04,32.56,59.82,72.73,59.82h8.79c12.91,0,23.38,8.61,23.38,19.23v21.65c0,27.53,27.13,49.84,60.6,49.84h12.3c12.91,0,23.38,8.61,23.38,19.23h0c0,22.25,21.93,40.28,48.98,40.28h15.17c14.14,0,25.6,9.42,25.6,21.05h0c0,32.13,31.67,58.17,70.73,58.17h120.69s0-289.27,0-289.27h-482.37Z"/>
    </clipPath>
    <clipPath id="clippath-1">
      <rect class="st1" x="1787.92" y="145.85" width="43.37" height="35.79"/>
    </clipPath>
    <clipPath id="clippath-2">
      <rect class="st6" x="1875.64" y="163.74" width="22.18" height="17.9"/>
    </clipPath>
    <clipPath id="clippath-3">
      <rect class="st6" x="1897.82" y="163.74" width="22.18" height="17.9"/>
    </clipPath>
    <clipPath id="clippath-4">
      <rect class="st6" x="1897.82" y="145.85" width="22.18" height="17.9"/>
    </clipPath>
    <clipPath id="clippath-5">
      <rect class="st6" x="1875.64" y="145.85" width="22.18" height="17.9"/>
    </clipPath>
  </defs>
  <g class="st15">
    <g>
      <g>
        <rect class="st1" x="1699.99" y="0" width="46.49" height="37.85"/>
        <g>
          <path class="st10" d="M1739.55,18.66l-16,13.21-16-13.21,16-13.21,16,13.21ZM1723.55,28.9l12.41-10.24-12.41-10.24-12.41,10.24,12.41,10.24Z"/>
          <polygon class="st0" points="1730.53 18.66 1723.55 12.9 1716.57 18.66 1723.55 24.42 1730.53 18.66"/>
          <path class="st3" d="M1745.94,18.66l-22.38,19.01-23.04-19.01L1723.56.19l22.38,18.47ZM1723.54,36.18l20.61-17.51-20.61-17.01-21.22,17.01,21.22,17.51Z"/>
          <path class="st14" d="M1745.94,18.66l-22.38,19.01-23.04-19.01L1723.56.19l22.38,18.47ZM1723.54,36.18l20.61-17.51-20.61-17.01-21.22,17.01,21.22,17.51Z"/>
        </g>
      </g>
      <g>
        <rect class="st10" x="1438.18" y="145.81" width="88.46" height="71.68"/>
        <g>
          <g>
            <g>
              <polygon class="st1" points="1481.24 186.63 1475.01 181.51 1455.87 197.24 1462.1 202.36 1481.24 186.63"/>
              <polygon class="st1" points="1462.1 181.51 1455.87 186.63 1475.01 202.36 1481.24 197.24 1462.1 181.51"/>
            </g>
            <g>
              <polygon class="st14" points="1506.49 186.63 1500.26 181.51 1481.12 197.24 1487.35 202.36 1506.49 186.63"/>
              <polygon class="st14" points="1487.35 181.51 1481.12 186.63 1500.26 202.36 1506.49 197.24 1487.35 181.51"/>
            </g>
          </g>
          <g>
            <g>
              <polygon class="st5" points="1481.24 166.05 1475.01 160.92 1455.87 176.65 1462.1 181.78 1481.24 166.05"/>
              <polygon class="st5" points="1462.1 160.92 1455.87 166.05 1475.01 181.78 1481.24 176.65 1462.1 160.92"/>
            </g>
            <g>
              <polygon class="st0" points="1506.49 166.05 1500.26 160.92 1481.12 176.65 1487.35 181.78 1506.49 166.05"/>
              <polygon class="st0" points="1487.35 160.92 1481.12 166.05 1500.26 181.78 1506.49 176.65 1487.35 160.92"/>
            </g>
          </g>
        </g>
      </g>
      <g>
        <rect class="st1" x="1699.96" y="181.64" width="44.59" height="35.79"/>
        <rect class="st0" x="1744.55" y="181.64" width="43.37" height="35.79"/>
        <path class="st5" d="M1787.92,181.64h-43.37s0,22.82,0,22.82c0,7.17,7.06,12.98,15.78,12.98h27.6s0-35.79,0-35.79Z"/>
        <rect class="st0" x="1787.92" y="181.64" width="43.37" height="35.79"/>
        <rect class="st0" x="1699.96" y="145.85" width="44.59" height="35.79"/>
        <rect class="st5" x="1744.55" y="145.85" width="43.37" height="35.79"/>
        <path class="st14" d="M1787.92,145.85h-27.6c-8.71,0-15.78,5.81-15.78,12.98v22.82s43.37,0,43.37,0v-35.79Z"/>
        <rect class="st1" x="1787.92" y="145.85" width="43.37" height="35.79"/>
        <g>
          <g>
            <path class="st5" d="M1809.61,214.24v3.2h-3.85c-3.86,0-6.99-2.57-6.99-5.75,0,3.18-3.13,5.75-6.99,5.75h-3.85v-3.2c0-3.18,3.13-5.75,6.99-5.75-3.86,0-6.99-2.57-6.99-5.75v-3.2h3.85c3.86,0,6.99,2.57,6.99,5.75,0-3.18,3.13-5.75,6.99-5.75h3.85v3.2c0,3.18-3.13,5.75-6.99,5.75,3.86,0,6.99,2.57,6.99,5.75Z"/>
            <path class="st1" d="M1831.3,214.24v3.2h-3.85c-3.86,0-6.99-2.57-6.99-5.75h0c0,3.18-3.13,5.75-6.99,5.75h-3.85v-3.2c0-3.18,3.13-5.75,6.99-5.75-3.86,0-6.99-2.57-6.99-5.75v-3.2h3.85c3.86,0,6.99,2.57,6.99,5.75h0c0-3.18,3.13-5.75,6.99-5.75h3.85v3.2c0,3.18-3.13,5.75-6.99,5.75h0c3.86,0,6.99,2.57,6.99,5.75Z"/>
          </g>
          <g>
            <path class="st10" d="M1809.61,196.34v3.2h-3.85c-3.86,0-6.99-2.57-6.99-5.75,0,3.18-3.13,5.75-6.99,5.75h-3.85v-3.2c0-3.18,3.13-5.75,6.99-5.75h0c-3.86,0-6.99-2.57-6.99-5.75v-3.2h3.85c3.86,0,6.99,2.57,6.99,5.75h0c0-3.18,3.13-5.75,6.99-5.75h3.85v3.2c0,3.18-3.13,5.75-6.99,5.75,3.86,0,6.99,2.57,6.99,5.75Z"/>
            <path class="st14" d="M1831.3,196.34v3.2h-3.85c-3.86,0-6.99-2.57-6.99-5.75h0c0,3.18-3.13,5.75-6.99,5.75h-3.85v-3.2c0-3.18,3.13-5.75,6.99-5.75-3.86,0-6.99-2.57-6.99-5.75v-3.2h3.85c3.86,0,6.99,2.57,6.99,5.75,0-3.18,3.13-5.75,6.99-5.75h3.85v3.2c0,3.18-3.13,5.75-6.99,5.75h0c3.86,0,6.99,2.57,6.99,5.75Z"/>
          </g>
        </g>
        <g>
          <path class="st10" d="M1702.32,179.77v.1s0,0,0,0c21.72.17,39.66-14.3,39.87-32.17v-.1s0,0,0,0c-21.72-.17-39.66,14.3-39.87,32.17Z"/>
          <g>
            <path class="st12" d="M1722.61,157.02c-4.5-.04-8.19,2.95-8.23,6.66-.04,3.72,3.57,6.76,8.07,6.79,4.5.04,8.19-2.95,8.23-6.66.04-3.72-3.57-6.76-8.07-6.79Z"/>
            <path class="st5" d="M1722.59,158.99c-3.18-.03-5.79,2.08-5.82,4.71s2.53,4.78,5.71,4.8c3.18.03,5.79-2.08,5.82-4.71.03-2.63-2.53-4.78-5.71-4.8Z"/>
            <path class="st12" d="M1722.56,162.08c-1.12,0-2.03.73-2.04,1.65-.01.92.89,1.68,2,1.68,1.12,0,2.03-.73,2.04-1.65.01-.92-.89-1.67-2-1.68Z"/>
          </g>
        </g>
        <g>
          <path class="st5" d="M1741.81,180.2h0v-.13c.21-17.86-17.39-32.61-39.1-32.78h0v.13c-.21,17.86,17.39,32.61,39.1,32.78Z"/>
          <g>
            <path class="st1" d="M1714.11,163.45c-.04,3.72,3.57,6.76,8.07,6.79,4.5.04,8.19-2.95,8.23-6.66.04-3.72-3.57-6.76-8.07-6.79-4.5-.04-8.19,2.95-8.23,6.66Z"/>
            <path class="st5" d="M1716.5,163.47c-.03,2.63,2.53,4.78,5.71,4.8,3.18.03,5.79-2.08,5.82-4.71.03-2.63-2.53-4.78-5.71-4.8-3.18-.03-5.79,2.08-5.82,4.71Z"/>
            <path class="st0" d="M1720.24,163.5c-.01.92.89,1.68,2,1.68,1.12,0,2.03-.73,2.04-1.65.01-.92-.89-1.67-2-1.68-1.12,0-2.03.73-2.04,1.65Z"/>
          </g>
        </g>
        <path class="st5" d="M1781.36,178.31c1.95,0,3.53-1.3,3.53-2.91s-1.58-2.91-3.53-2.91-3.53,1.3-3.53,2.91c0,1.61,1.58,2.91,3.53,2.91Z"/>
        <path class="st0" d="M1781.36,192.69c1.95,0,3.53-1.3,3.53-2.91s-1.58-2.91-3.53-2.91-3.53,1.3-3.53,2.91,1.58,2.91,3.53,2.91Z"/>
        <g>
          <rect class="st1" x="1787.92" y="145.85" width="43.37" height="35.79"/>
          <g class="st8">
            <g>
              <polygon class="st5" points="1819.09 136.56 1775.58 172.46 1777.14 173.76 1820.65 137.85 1819.09 136.56"/>
              <polygon class="st5" points="1823.44 140.15 1779.93 176.06 1781.5 177.35 1825.01 141.44 1823.44 140.15"/>
              <polygon class="st5" points="1827.8 143.75 1784.29 179.65 1785.85 180.95 1829.36 145.04 1827.8 143.75"/>
              <polygon class="st5" points="1832.15 147.34 1788.64 183.25 1790.21 184.54 1833.72 148.63 1832.15 147.34"/>
              <polygon class="st5" points="1836.51 150.94 1793 186.84 1794.57 188.14 1838.07 152.23 1836.51 150.94"/>
              <polygon class="st5" points="1840.87 154.53 1797.36 190.44 1798.92 191.73 1842.43 155.82 1840.87 154.53"/>
            </g>
          </g>
        </g>
        <g>
          <g>
            <rect class="st0" x="1703.31" y="203.14" width="4.03" height="12.32"/>
            <rect class="st10" x="1710.71" y="203.14" width="4.03" height="12.32"/>
            <rect class="st14" x="1718.1" y="203.14" width="4.03" height="12.32"/>
          </g>
          <g>
            <rect class="st14" x="1722.99" y="183.61" width="4.03" height="12.32"/>
            <rect class="st0" x="1730.38" y="183.61" width="4.03" height="12.32"/>
            <rect class="st10" x="1737.78" y="183.61" width="4.03" height="12.32"/>
          </g>
          <rect class="st14" x="1703.31" y="197.93" width="38.5" height="3.22"/>
          <path class="st5" d="M1737.78,209.3c0-2.17-2.13-3.92-4.75-3.92s-4.75,1.76-4.75,3.92c0,2.17,2.13,3.92,4.75,3.92,2.63,0,4.75-1.76,4.75-3.92Z"/>
          <path class="st5" d="M1716.9,190.31c0-2.17-2.13-3.92-4.75-3.92s-4.75,1.76-4.75,3.92,2.13,3.92,4.75,3.92,4.75-1.76,4.75-3.92Z"/>
        </g>
        <rect class="st14" x="1756.31" y="191.15" width="4.8" height="20.91"/>
        <rect class="st14" x="1763.84" y="191.15" width="4.8" height="20.91"/>
        <rect class="st10" x="1756.31" y="148.7" width="4.8" height="20.91"/>
        <rect class="st10" x="1763.84" y="148.7" width="4.8" height="20.91"/>
      </g>
      <g>
        <rect class="st10" x="1526.64" y="97.9" width="58.84" height="47.9"/>
        <rect class="st5" x="1585.48" y="97.9" width="57.24" height="47.9"/>
        <rect class="st1" x="1642.72" y="97.9" width="57.24" height="47.9"/>
        <rect class="st14" x="1526.64" y="50.67" width="58.84" height="47.24"/>
        <rect class="st0" x="1585.48" y="50.67" width="57.24" height="47.24"/>
        <rect class="st5" x="1642.72" y="50.67" width="57.24" height="47.24"/>
        <g>
          <path class="st1" d="M1576.72,121.52l-20.26,16.72-20.26-16.72,20.26-16.72,20.26,16.72ZM1556.46,134.48l15.7-12.96-15.7-12.96-15.7,12.96,15.7,12.96Z"/>
          <polygon class="st5" points="1565.29 121.52 1556.46 114.23 1547.63 121.52 1556.46 128.82 1565.29 121.52"/>
          <path class="st3" d="M1584.8,121.52l-28.33,24.07-29.16-24.07,29.16-23.38,28.33,23.38ZM1556.45,143.69l26.08-22.16-26.08-21.53-26.85,21.53,26.85,22.16Z"/>
          <path class="st14" d="M1584.8,121.52l-28.33,24.07-29.16-24.07,29.16-23.38,28.33,23.38ZM1556.45,143.69l26.08-22.16-26.08-21.53-26.85,21.53,26.85,22.16Z"/>
        </g>
        <g>
          <g>
            <path class="st14" d="M1598.1,107.13c-3.74,0-6.77-2.5-6.77-5.59h13.54c0,3.09-3.03,5.59-6.77,5.59Z"/>
            <path class="st10" d="M1598.1,115.95c-3.74,0-6.77-2.5-6.77-5.59h13.54c0,3.09-3.03,5.59-6.77,5.59Z"/>
            <path class="st0" d="M1598.1,124.77c-3.74,0-6.77-2.5-6.77-5.59h13.54c0,3.09-3.03,5.59-6.77,5.59Z"/>
            <path class="st1" d="M1598.1,133.59c-3.74,0-6.77-2.5-6.77-5.59h13.54c0,3.09-3.03,5.59-6.77,5.59Z"/>
            <path class="st14" d="M1598.1,142.42c-3.74,0-6.77-2.5-6.77-5.59h13.54c0,3.09-3.03,5.59-6.77,5.59Z"/>
          </g>
          <g>
            <path class="st10" d="M1614.1,107.13c-3.74,0-6.77-2.5-6.77-5.59h13.54c0,3.09-3.03,5.59-6.77,5.59Z"/>
            <path class="st0" d="M1614.1,115.95c-3.74,0-6.77-2.5-6.77-5.59h13.54c0,3.09-3.03,5.59-6.77,5.59Z"/>
            <path class="st1" d="M1614.1,124.77c-3.74,0-6.77-2.5-6.77-5.59h13.54c0,3.09-3.03,5.59-6.77,5.59Z"/>
            <path class="st14" d="M1614.1,133.59c-3.74,0-6.77-2.5-6.77-5.59h13.54c0,3.09-3.03,5.59-6.77,5.59Z"/>
            <path class="st10" d="M1614.1,142.42c-3.74,0-6.77-2.5-6.77-5.59h13.54c0,3.09-3.03,5.59-6.77,5.59Z"/>
          </g>
          <g>
            <path class="st0" d="M1630.11,107.13c-3.74,0-6.77-2.5-6.77-5.59h13.54c0,3.09-3.03,5.59-6.77,5.59Z"/>
            <path class="st1" d="M1630.11,115.95c-3.74,0-6.77-2.5-6.77-5.59h13.54c0,3.09-3.03,5.59-6.77,5.59Z"/>
            <path class="st14" d="M1630.11,124.77c-3.74,0-6.77-2.5-6.77-5.59h13.54c0,3.09-3.03,5.59-6.77,5.59Z"/>
            <path class="st10" d="M1630.11,133.59c-3.74,0-6.77-2.5-6.77-5.59h13.54c0,3.09-3.03,5.59-6.77,5.59Z"/>
            <path class="st0" d="M1630.11,142.42c-3.74,0-6.77-2.5-6.77-5.59h13.54c0,3.09-3.03,5.59-6.77,5.59Z"/>
          </g>
        </g>
        <g>
          <g>
            <path class="st5" d="M1671.34,142.24v3.56h-3.48c-5.96,0-10.83-4.01-10.83-8.91h0c0,4.9-4.87,8.91-10.83,8.91h-3.48v-3.56c0-4.9,4.87-8.91,10.83-8.91-5.98,0-10.83-3.99-10.83-8.91v-2.9h3.48c5.98,0,10.83,3.99,10.83,8.91h0c0-4.92,4.85-8.91,10.83-8.91h3.48v2.9c0,4.92-4.85,8.91-10.83,8.91h0c5.98,0,10.83,3.99,10.83,8.91Z"/>
            <path class="st5" d="M1699.96,142.24v3.56h-3.48c-5.98,0-10.83-3.99-10.83-8.91,0,4.92-4.85,8.91-10.83,8.91h-3.48v-3.56c0-4.92,4.85-8.91,10.83-8.91-5.98,0-10.83-3.99-10.83-8.91v-2.9h3.48c5.98,0,10.83,3.99,10.83,8.91h0c0-4.92,4.85-8.91,10.83-8.91h3.48v2.9c0,4.92-4.85,8.91-10.83,8.91,5.98,0,10.83,3.99,10.83,8.91Z"/>
          </g>
          <g>
            <path class="st5" d="M1671.34,118.62v2.9h-3.48c-5.98,0-10.83-3.99-10.83-8.91h0c0,4.92-4.85,8.91-10.83,8.91h-3.48v-2.9c0-4.92,4.85-8.91,10.83-8.91-5.98,0-10.83-3.99-10.83-8.91v-2.9h3.48c5.98,0,10.83,3.99,10.83,8.91h0c0-4.92,4.85-8.91,10.83-8.91h3.48v2.9c0,4.92-4.85,8.91-10.83,8.91h0c5.98,0,10.83,3.99,10.83,8.91Z"/>
            <path class="st5" d="M1699.96,118.62v2.9h-3.48c-5.98,0-10.83-3.99-10.83-8.91,0,4.92-4.85,8.91-10.83,8.91h-3.48v-2.9c0-4.92,4.85-8.91,10.83-8.91-5.98,0-10.83-3.99-10.83-8.91v-2.9h3.48c5.98,0,10.83,3.99,10.83,8.91h0c0-4.92,4.85-8.91,10.83-8.91h3.48v2.9c0,4.92-4.85,8.91-10.83,8.91,5.98,0,10.83,3.99,10.83,8.91Z"/>
          </g>
        </g>
        <g>
          <path class="st1" d="M1528.04,50.67h-1.4s0,0,0,0c0,26.09,25.72,47.24,57.44,47.24h1.4c0-26.09-25.72-47.24-57.44-47.24Z"/>
          <g>
            <ellipse class="st5" cx="1556.46" cy="74.29" rx="10.96" ry="9.04"/>
            <path class="st0" d="M1572.22,74.29c0,7.17-7.07,13-15.76,13-8.69,0-15.76-5.83-15.76-13s7.07-13,15.76-13c8.69,0,15.76,5.83,15.76,13ZM1569.8,74.29c0-6.07-5.98-11.01-13.34-11.01-7.35,0-13.34,4.94-13.34,11.01,0,6.07,5.98,11.01,13.34,11.01,7.35,0,13.34-4.94,13.34-11.01Z"/>
            <path class="st14" d="M1563.13,74.29c0-3.04-2.99-5.5-6.67-5.5s-6.67,2.46-6.67,5.5,2.99,5.5,6.67,5.5c3.68,0,6.67-2.46,6.67-5.5Z"/>
          </g>
        </g>
        <g>
          <g>
            <path class="st5" d="M1589.41,95.01c0-.42-.41-.76-.92-.76s-.92.34-.92.76c0,.42.41.76.92.76s.92-.34.92-.76Z"/>
            <g>
              <path class="st5" d="M1595.1,95.01c0-.42-.41-.76-.92-.76s-.92.34-.92.76c0,.42.41.76.92.76s.92-.34.92-.76Z"/>
              <path class="st5" d="M1600.79,95.01c0-.42-.41-.76-.92-.76s-.92.34-.92.76c0,.42.41.76.92.76s.92-.34.92-.76Z"/>
              <path class="st5" d="M1606.48,95.01c0-.42-.41-.76-.92-.76s-.92.34-.92.76.41.76.92.76.92-.34.92-.76Z"/>
              <path class="st5" d="M1612.17,95.01c0-.42-.41-.76-.92-.76s-.92.34-.92.76c0,.42.41.76.92.76s.92-.34.92-.76Z"/>
              <path class="st5" d="M1617.87,95.01c0-.42-.41-.76-.92-.76s-.92.34-.92.76.41.76.92.76.92-.34.92-.76Z"/>
              <path class="st5" d="M1623.56,95.01c0-.42-.41-.76-.92-.76s-.92.34-.92.76.41.76.92.76.92-.34.92-.76Z"/>
              <path class="st5" d="M1629.25,95.01c0-.42-.41-.76-.92-.76s-.92.34-.92.76c0,.42.41.76.92.76s.92-.34.92-.76Z"/>
              <path class="st5" d="M1634.94,95.01c0-.42-.41-.76-.92-.76s-.92.34-.92.76c0,.42.41.76.92.76s.92-.34.92-.76Z"/>
              <path class="st5" d="M1640.63,95.01c0-.42-.41-.76-.92-.76s-.92.34-.92.76c0,.42.41.76.92.76s.92-.34.92-.76Z"/>
            </g>
            <g>
              <path class="st5" d="M1593.09,92.07c0-.42-.41-.76-.92-.76s-.92.34-.92.76c0,.42.41.76.92.76s.92-.34.92-.76Z"/>
              <path class="st5" d="M1598.78,92.07c0-.42-.41-.76-.92-.76s-.92.34-.92.76c0,.42.41.76.92.76s.92-.34.92-.76Z"/>
              <path class="st5" d="M1604.47,92.07c0-.42-.41-.76-.92-.76s-.92.34-.92.76c0,.42.41.76.92.76s.92-.34.92-.76Z"/>
              <path class="st5" d="M1610.16,92.07c0-.42-.41-.76-.92-.76s-.92.34-.92.76c0,.42.41.76.92.76s.92-.34.92-.76Z"/>
              <path class="st5" d="M1615.85,92.07c0-.42-.41-.76-.92-.76s-.92.34-.92.76c0,.42.41.76.92.76s.92-.34.92-.76Z"/>
              <path class="st5" d="M1621.54,92.07c0-.42-.41-.76-.92-.76s-.92.34-.92.76.41.76.92.76.92-.34.92-.76Z"/>
              <path class="st5" d="M1627.23,92.07c0-.42-.41-.76-.92-.76s-.92.34-.92.76.41.76.92.76.92-.34.92-.76Z"/>
              <path class="st5" d="M1632.92,92.07c0-.42-.41-.76-.92-.76s-.92.34-.92.76c0,.42.41.76.92.76s.92-.34.92-.76Z"/>
              <path class="st5" d="M1638.62,92.07c0-.42-.41-.76-.92-.76s-.92.34-.92.76.41.76.92.76.92-.34.92-.76Z"/>
            </g>
          </g>
          <g>
            <path class="st5" d="M1589.41,89.5c0-.42-.41-.76-.92-.76s-.92.34-.92.76.41.76.92.76.92-.34.92-.76Z"/>
            <g>
              <path class="st5" d="M1595.1,89.5c0-.42-.41-.76-.92-.76s-.92.34-.92.76c0,.42.41.76.92.76s.92-.34.92-.76Z"/>
              <path class="st5" d="M1600.79,89.5c0-.42-.41-.76-.92-.76s-.92.34-.92.76c0,.42.41.76.92.76s.92-.34.92-.76Z"/>
              <path class="st5" d="M1606.48,89.5c0-.42-.41-.76-.92-.76s-.92.34-.92.76.41.76.92.76.92-.34.92-.76Z"/>
              <path class="st5" d="M1612.17,89.5c0-.42-.41-.76-.92-.76s-.92.34-.92.76.41.76.92.76.92-.34.92-.76Z"/>
              <path class="st5" d="M1617.87,89.5c0-.42-.41-.76-.92-.76s-.92.34-.92.76.41.76.92.76.92-.34.92-.76Z"/>
              <path class="st5" d="M1623.56,89.5c0-.42-.41-.76-.92-.76s-.92.34-.92.76.41.76.92.76.92-.34.92-.76Z"/>
              <path class="st5" d="M1629.25,89.5c0-.42-.41-.76-.92-.76s-.92.34-.92.76c0,.42.41.76.92.76s.92-.34.92-.76Z"/>
              <path class="st5" d="M1634.94,89.5c0-.42-.41-.76-.92-.76s-.92.34-.92.76.41.76.92.76.92-.34.92-.76Z"/>
              <path class="st5" d="M1640.63,89.5c0-.42-.41-.76-.92-.76s-.92.34-.92.76c0,.42.41.76.92.76s.92-.34.92-.76Z"/>
            </g>
            <g>
              <path class="st5" d="M1593.09,86.57c0-.42-.41-.76-.92-.76s-.92.34-.92.76.41.76.92.76.92-.34.92-.76Z"/>
              <path class="st5" d="M1598.78,86.57c0-.42-.41-.76-.92-.76s-.92.34-.92.76c0,.42.41.76.92.76s.92-.34.92-.76Z"/>
              <path class="st5" d="M1604.47,86.57c0-.42-.41-.76-.92-.76s-.92.34-.92.76c0,.42.41.76.92.76s.92-.34.92-.76Z"/>
              <path class="st5" d="M1610.16,86.57c0-.42-.41-.76-.92-.76s-.92.34-.92.76c0,.42.41.76.92.76s.92-.34.92-.76Z"/>
              <path class="st5" d="M1615.85,86.57c0-.42-.41-.76-.92-.76s-.92.34-.92.76c0,.42.41.76.92.76s.92-.34.92-.76Z"/>
              <path class="st5" d="M1621.54,86.57c0-.42-.41-.76-.92-.76s-.92.34-.92.76c0,.42.41.76.92.76s.92-.34.92-.76Z"/>
              <path class="st5" d="M1627.23,86.57c0-.42-.41-.76-.92-.76s-.92.34-.92.76c0,.42.41.76.92.76s.92-.34.92-.76Z"/>
              <path class="st5" d="M1632.92,86.57c0-.42-.41-.76-.92-.76s-.92.34-.92.76c0,.42.41.76.92.76s.92-.34.92-.76Z"/>
              <path class="st5" d="M1638.62,86.57c0-.42-.41-.76-.92-.76s-.92.34-.92.76c0,.42.41.76.92.76s.92-.34.92-.76Z"/>
            </g>
          </g>
          <g>
            <path class="st5" d="M1589.41,84c0-.42-.41-.76-.92-.76s-.92.34-.92.76c0,.42.41.76.92.76s.92-.34.92-.76Z"/>
            <g>
              <path class="st5" d="M1595.1,84c0-.42-.41-.76-.92-.76s-.92.34-.92.76.41.76.92.76.92-.34.92-.76Z"/>
              <path class="st5" d="M1600.79,84c0-.42-.41-.76-.92-.76s-.92.34-.92.76c0,.42.41.76.92.76s.92-.34.92-.76Z"/>
              <path class="st5" d="M1606.48,84c0-.42-.41-.76-.92-.76s-.92.34-.92.76c0,.42.41.76.92.76s.92-.34.92-.76Z"/>
              <path class="st5" d="M1612.17,84c0-.42-.41-.76-.92-.76s-.92.34-.92.76c0,.42.41.76.92.76s.92-.34.92-.76Z"/>
              <path class="st5" d="M1617.87,84c0-.42-.41-.76-.92-.76s-.92.34-.92.76c0,.42.41.76.92.76s.92-.34.92-.76Z"/>
              <path class="st5" d="M1623.56,84c0-.42-.41-.76-.92-.76s-.92.34-.92.76c0,.42.41.76.92.76s.92-.34.92-.76Z"/>
              <path class="st5" d="M1629.25,84c0-.42-.41-.76-.92-.76s-.92.34-.92.76c0,.42.41.76.92.76s.92-.34.92-.76Z"/>
              <path class="st5" d="M1634.94,84c0-.42-.41-.76-.92-.76s-.92.34-.92.76c0,.42.41.76.92.76s.92-.34.92-.76Z"/>
              <path class="st5" d="M1640.63,84c0-.42-.41-.76-.92-.76s-.92.34-.92.76c0,.42.41.76.92.76s.92-.34.92-.76Z"/>
            </g>
            <g>
              <path class="st5" d="M1593.09,81.07c0-.42-.41-.76-.92-.76s-.92.34-.92.76c0,.42.41.76.92.76s.92-.34.92-.76Z"/>
              <path class="st5" d="M1598.78,81.07c0-.42-.41-.76-.92-.76s-.92.34-.92.76.41.76.92.76.92-.34.92-.76Z"/>
              <path class="st5" d="M1604.47,81.07c0-.42-.41-.76-.92-.76s-.92.34-.92.76c0,.42.41.76.92.76s.92-.34.92-.76Z"/>
              <path class="st5" d="M1610.16,81.07c0-.42-.41-.76-.92-.76s-.92.34-.92.76c0,.42.41.76.92.76s.92-.34.92-.76Z"/>
              <path class="st5" d="M1615.85,81.07c0-.42-.41-.76-.92-.76s-.92.34-.92.76c0,.42.41.76.92.76s.92-.34.92-.76Z"/>
              <path class="st5" d="M1621.54,81.07c0-.42-.41-.76-.92-.76s-.92.34-.92.76c0,.42.41.76.92.76s.92-.34.92-.76Z"/>
              <path class="st5" d="M1627.23,81.07c0-.42-.41-.76-.92-.76s-.92.34-.92.76.41.76.92.76.92-.34.92-.76Z"/>
              <path class="st5" d="M1632.92,81.07c0-.42-.41-.76-.92-.76s-.92.34-.92.76c0,.42.41.76.92.76s.92-.34.92-.76Z"/>
              <path class="st5" d="M1638.62,81.07c0-.42-.41-.76-.92-.76s-.92.34-.92.76c0,.42.41.76.92.76s.92-.34.92-.76Z"/>
            </g>
          </g>
          <g>
            <path class="st5" d="M1589.41,78.5c0-.42-.41-.76-.92-.76s-.92.34-.92.76c0,.42.41.76.92.76s.92-.34.92-.76Z"/>
            <g>
              <path class="st5" d="M1595.1,78.5c0-.42-.41-.76-.92-.76s-.92.34-.92.76.41.76.92.76.92-.34.92-.76Z"/>
              <path class="st5" d="M1600.79,78.5c0-.42-.41-.76-.92-.76s-.92.34-.92.76.41.76.92.76.92-.34.92-.76Z"/>
              <path class="st5" d="M1606.48,78.5c0-.42-.41-.76-.92-.76s-.92.34-.92.76c0,.42.41.76.92.76s.92-.34.92-.76Z"/>
              <path class="st5" d="M1612.17,78.5c0-.42-.41-.76-.92-.76s-.92.34-.92.76c0,.42.41.76.92.76s.92-.34.92-.76Z"/>
              <path class="st5" d="M1617.87,78.5c0-.42-.41-.76-.92-.76s-.92.34-.92.76.41.76.92.76.92-.34.92-.76Z"/>
              <path class="st5" d="M1623.56,78.5c0-.42-.41-.76-.92-.76s-.92.34-.92.76.41.76.92.76.92-.34.92-.76Z"/>
              <path class="st5" d="M1629.25,78.5c0-.42-.41-.76-.92-.76s-.92.34-.92.76c0,.42.41.76.92.76s.92-.34.92-.76Z"/>
              <path class="st5" d="M1634.94,78.5c0-.42-.41-.76-.92-.76s-.92.34-.92.76c0,.42.41.76.92.76s.92-.34.92-.76Z"/>
              <path class="st5" d="M1640.63,78.5c0-.42-.41-.76-.92-.76s-.92.34-.92.76c0,.42.41.76.92.76s.92-.34.92-.76Z"/>
            </g>
            <g>
              <path class="st5" d="M1593.09,75.57c0-.42-.41-.76-.92-.76s-.92.34-.92.76c0,.42.41.76.92.76s.92-.34.92-.76Z"/>
              <path class="st5" d="M1598.78,75.57c0-.42-.41-.76-.92-.76s-.92.34-.92.76c0,.42.41.76.92.76s.92-.34.92-.76Z"/>
              <path class="st5" d="M1604.47,75.57c0-.42-.41-.76-.92-.76s-.92.34-.92.76c0,.42.41.76.92.76s.92-.34.92-.76Z"/>
              <path class="st5" d="M1610.16,75.57c0-.42-.41-.76-.92-.76s-.92.34-.92.76c0,.42.41.76.92.76s.92-.34.92-.76Z"/>
              <path class="st5" d="M1615.85,75.57c0-.42-.41-.76-.92-.76s-.92.34-.92.76.41.76.92.76.92-.34.92-.76Z"/>
              <path class="st5" d="M1621.54,75.57c0-.42-.41-.76-.92-.76s-.92.34-.92.76.41.76.92.76.92-.34.92-.76Z"/>
              <path class="st5" d="M1627.23,75.57c0-.42-.41-.76-.92-.76s-.92.34-.92.76c0,.42.41.76.92.76s.92-.34.92-.76Z"/>
              <path class="st5" d="M1632.92,75.57c0-.42-.41-.76-.92-.76s-.92.34-.92.76c0,.42.41.76.92.76s.92-.34.92-.76Z"/>
              <path class="st5" d="M1638.62,75.57c0-.42-.41-.76-.92-.76s-.92.34-.92.76c0,.42.41.76.92.76s.92-.34.92-.76Z"/>
            </g>
          </g>
          <g>
            <path class="st5" d="M1589.41,73c0-.42-.41-.76-.92-.76s-.92.34-.92.76.41.76.92.76.92-.34.92-.76Z"/>
            <g>
              <path class="st5" d="M1595.1,73c0-.42-.41-.76-.92-.76s-.92.34-.92.76c0,.42.41.76.92.76s.92-.34.92-.76Z"/>
              <path class="st5" d="M1600.79,73c0-.42-.41-.76-.92-.76s-.92.34-.92.76c0,.42.41.76.92.76s.92-.34.92-.76Z"/>
              <path class="st5" d="M1606.48,73c0-.42-.41-.76-.92-.76s-.92.34-.92.76c0,.42.41.76.92.76s.92-.34.92-.76Z"/>
              <path class="st5" d="M1612.17,73c0-.42-.41-.76-.92-.76s-.92.34-.92.76c0,.42.41.76.92.76s.92-.34.92-.76Z"/>
              <path class="st5" d="M1617.87,73c0-.42-.41-.76-.92-.76s-.92.34-.92.76c0,.42.41.76.92.76s.92-.34.92-.76Z"/>
              <path class="st5" d="M1623.56,73c0-.42-.41-.76-.92-.76s-.92.34-.92.76c0,.42.41.76.92.76s.92-.34.92-.76Z"/>
              <path class="st5" d="M1629.25,73c0-.42-.41-.76-.92-.76s-.92.34-.92.76c0,.42.41.76.92.76s.92-.34.92-.76Z"/>
              <path class="st5" d="M1634.94,73c0-.42-.41-.76-.92-.76s-.92.34-.92.76.41.76.92.76.92-.34.92-.76Z"/>
              <path class="st5" d="M1640.63,73c0-.42-.41-.76-.92-.76s-.92.34-.92.76.41.76.92.76.92-.34.92-.76Z"/>
            </g>
            <g>
              <path class="st5" d="M1593.09,70.07c0-.42-.41-.76-.92-.76s-.92.34-.92.76c0,.42.41.76.92.76s.92-.34.92-.76Z"/>
              <path class="st5" d="M1598.78,70.07c0-.42-.41-.76-.92-.76s-.92.34-.92.76.41.76.92.76.92-.34.92-.76Z"/>
              <path class="st5" d="M1604.47,70.07c0-.42-.41-.76-.92-.76s-.92.34-.92.76c0,.42.41.76.92.76s.92-.34.92-.76Z"/>
              <path class="st5" d="M1610.16,70.07c0-.42-.41-.76-.92-.76s-.92.34-.92.76c0,.42.41.76.92.76s.92-.34.92-.76Z"/>
              <path class="st5" d="M1615.85,70.07c0-.42-.41-.76-.92-.76s-.92.34-.92.76c0,.42.41.76.92.76s.92-.34.92-.76Z"/>
              <path class="st5" d="M1621.54,70.07c0-.42-.41-.76-.92-.76s-.92.34-.92.76c0,.42.41.76.92.76s.92-.34.92-.76Z"/>
              <path class="st5" d="M1627.23,70.07c0-.42-.41-.76-.92-.76s-.92.34-.92.76c0,.42.41.76.92.76s.92-.34.92-.76Z"/>
              <path class="st5" d="M1632.92,70.07c0-.42-.41-.76-.92-.76s-.92.34-.92.76c0,.42.41.76.92.76s.92-.34.92-.76Z"/>
              <path class="st5" d="M1638.62,70.07c0-.42-.41-.76-.92-.76s-.92.34-.92.76.41.76.92.76.92-.34.92-.76Z"/>
            </g>
          </g>
          <g>
            <path class="st5" d="M1589.41,67.5c0-.42-.41-.76-.92-.76s-.92.34-.92.76.41.76.92.76.92-.34.92-.76Z"/>
            <g>
              <path class="st5" d="M1595.1,67.5c0-.42-.41-.76-.92-.76s-.92.34-.92.76c0,.42.41.76.92.76s.92-.34.92-.76Z"/>
              <path class="st5" d="M1600.79,67.5c0-.42-.41-.76-.92-.76s-.92.34-.92.76c0,.42.41.76.92.76s.92-.34.92-.76Z"/>
              <path class="st5" d="M1606.48,67.5c0-.42-.41-.76-.92-.76s-.92.34-.92.76c0,.42.41.76.92.76s.92-.34.92-.76Z"/>
              <path class="st5" d="M1612.17,67.5c0-.42-.41-.76-.92-.76s-.92.34-.92.76c0,.42.41.76.92.76s.92-.34.92-.76Z"/>
              <path class="st5" d="M1617.87,67.5c0-.42-.41-.76-.92-.76s-.92.34-.92.76c0,.42.41.76.92.76s.92-.34.92-.76Z"/>
              <path class="st5" d="M1623.56,67.5c0-.42-.41-.76-.92-.76s-.92.34-.92.76.41.76.92.76.92-.34.92-.76Z"/>
              <path class="st5" d="M1629.25,67.5c0-.42-.41-.76-.92-.76s-.92.34-.92.76c0,.42.41.76.92.76s.92-.34.92-.76Z"/>
              <path class="st5" d="M1634.94,67.5c0-.42-.41-.76-.92-.76s-.92.34-.92.76c0,.42.41.76.92.76s.92-.34.92-.76Z"/>
              <path class="st5" d="M1640.63,67.5c0-.42-.41-.76-.92-.76s-.92.34-.92.76.41.76.92.76.92-.34.92-.76Z"/>
            </g>
            <g>
              <path class="st5" d="M1593.09,64.57c0-.42-.41-.76-.92-.76s-.92.34-.92.76c0,.42.41.76.92.76s.92-.34.92-.76Z"/>
              <path class="st5" d="M1598.78,64.57c0-.42-.41-.76-.92-.76s-.92.34-.92.76c0,.42.41.76.92.76s.92-.34.92-.76Z"/>
              <path class="st5" d="M1604.47,64.57c0-.42-.41-.76-.92-.76s-.92.34-.92.76c0,.42.41.76.92.76s.92-.34.92-.76Z"/>
              <path class="st5" d="M1610.16,64.57c0-.42-.41-.76-.92-.76s-.92.34-.92.76c0,.42.41.76.92.76s.92-.34.92-.76Z"/>
              <path class="st5" d="M1615.85,64.57c0-.42-.41-.76-.92-.76s-.92.34-.92.76c0,.42.41.76.92.76s.92-.34.92-.76Z"/>
              <path class="st5" d="M1621.54,64.57c0-.42-.41-.76-.92-.76s-.92.34-.92.76c0,.42.41.76.92.76s.92-.34.92-.76Z"/>
              <path class="st5" d="M1627.23,64.57c0-.42-.41-.76-.92-.76s-.92.34-.92.76c0,.42.41.76.92.76s.92-.34.92-.76Z"/>
              <path class="st5" d="M1632.92,64.57c0-.42-.41-.76-.92-.76s-.92.34-.92.76c0,.42.41.76.92.76s.92-.34.92-.76Z"/>
              <path class="st5" d="M1638.62,64.57c0-.42-.41-.76-.92-.76s-.92.34-.92.76c0,.42.41.76.92.76s.92-.34.92-.76Z"/>
            </g>
          </g>
          <g>
            <path class="st5" d="M1589.41,62c0-.42-.41-.76-.92-.76s-.92.34-.92.76c0,.42.41.76.92.76s.92-.34.92-.76Z"/>
            <g>
              <path class="st5" d="M1595.1,62c0-.42-.41-.76-.92-.76s-.92.34-.92.76c0,.42.41.76.92.76s.92-.34.92-.76Z"/>
              <path class="st5" d="M1600.79,62c0-.42-.41-.76-.92-.76s-.92.34-.92.76.41.76.92.76.92-.34.92-.76Z"/>
              <path class="st5" d="M1606.48,62c0-.42-.41-.76-.92-.76s-.92.34-.92.76.41.76.92.76.92-.34.92-.76Z"/>
              <path class="st5" d="M1612.17,62c0-.42-.41-.76-.92-.76s-.92.34-.92.76c0,.42.41.76.92.76s.92-.34.92-.76Z"/>
              <path class="st5" d="M1617.87,62c0-.42-.41-.76-.92-.76s-.92.34-.92.76c0,.42.41.76.92.76s.92-.34.92-.76Z"/>
              <path class="st5" d="M1623.56,62c0-.42-.41-.76-.92-.76s-.92.34-.92.76c0,.42.41.76.92.76s.92-.34.92-.76Z"/>
              <path class="st5" d="M1629.25,62c0-.42-.41-.76-.92-.76s-.92.34-.92.76c0,.42.41.76.92.76s.92-.34.92-.76Z"/>
              <path class="st5" d="M1634.94,62c0-.42-.41-.76-.92-.76s-.92.34-.92.76c0,.42.41.76.92.76s.92-.34.92-.76Z"/>
              <path class="st5" d="M1640.63,62c0-.42-.41-.76-.92-.76s-.92.34-.92.76c0,.42.41.76.92.76s.92-.34.92-.76Z"/>
            </g>
            <g>
              <path class="st5" d="M1593.09,59.07c0-.42-.41-.76-.92-.76s-.92.34-.92.76c0,.42.41.76.92.76s.92-.34.92-.76Z"/>
              <path class="st5" d="M1598.78,59.07c0-.42-.41-.76-.92-.76s-.92.34-.92.76.41.76.92.76.92-.34.92-.76Z"/>
              <path class="st5" d="M1604.47,59.07c0-.42-.41-.76-.92-.76s-.92.34-.92.76c0,.42.41.76.92.76s.92-.34.92-.76Z"/>
              <path class="st5" d="M1610.16,59.07c0-.42-.41-.76-.92-.76s-.92.34-.92.76c0,.42.41.76.92.76s.92-.34.92-.76Z"/>
              <path class="st5" d="M1615.85,59.07c0-.42-.41-.76-.92-.76s-.92.34-.92.76c0,.42.41.76.92.76s.92-.34.92-.76Z"/>
              <path class="st5" d="M1621.54,59.07c0-.42-.41-.76-.92-.76s-.92.34-.92.76.41.76.92.76.92-.34.92-.76Z"/>
              <path class="st5" d="M1627.23,59.07c0-.42-.41-.76-.92-.76s-.92.34-.92.76.41.76.92.76.92-.34.92-.76Z"/>
              <path class="st5" d="M1632.92,59.07c0-.42-.41-.76-.92-.76s-.92.34-.92.76c0,.42.41.76.92.76s.92-.34.92-.76Z"/>
              <path class="st5" d="M1638.62,59.07c0-.42-.41-.76-.92-.76s-.92.34-.92.76c0,.42.41.76.92.76s.92-.34.92-.76Z"/>
            </g>
          </g>
          <g>
            <path class="st5" d="M1589.41,56.5c0-.42-.41-.76-.92-.76s-.92.34-.92.76c0,.42.41.76.92.76s.92-.34.92-.76Z"/>
            <g>
              <path class="st5" d="M1595.1,56.5c0-.42-.41-.76-.92-.76s-.92.34-.92.76c0,.42.41.76.92.76s.92-.34.92-.76Z"/>
              <path class="st5" d="M1600.79,56.5c0-.42-.41-.76-.92-.76s-.92.34-.92.76c0,.42.41.76.92.76s.92-.34.92-.76Z"/>
              <path class="st5" d="M1606.48,56.5c0-.42-.41-.76-.92-.76s-.92.34-.92.76c0,.42.41.76.92.76s.92-.34.92-.76Z"/>
              <path class="st5" d="M1612.17,56.5c0-.42-.41-.76-.92-.76s-.92.34-.92.76c0,.42.41.76.92.76s.92-.34.92-.76Z"/>
              <path class="st5" d="M1617.87,56.5c0-.42-.41-.76-.92-.76s-.92.34-.92.76c0,.42.41.76.92.76s.92-.34.92-.76Z"/>
              <path class="st5" d="M1623.56,56.5c0-.42-.41-.76-.92-.76s-.92.34-.92.76c0,.42.41.76.92.76s.92-.34.92-.76Z"/>
              <path class="st5" d="M1629.25,56.5c0-.42-.41-.76-.92-.76s-.92.34-.92.76c0,.42.41.76.92.76s.92-.34.92-.76Z"/>
              <path class="st5" d="M1634.94,56.5c0-.42-.41-.76-.92-.76s-.92.34-.92.76c0,.42.41.76.92.76s.92-.34.92-.76Z"/>
              <path class="st5" d="M1640.63,56.5c0-.42-.41-.76-.92-.76s-.92.34-.92.76.41.76.92.76.92-.34.92-.76Z"/>
            </g>
            <g>
              <path class="st5" d="M1593.09,53.56c0-.42-.41-.76-.92-.76s-.92.34-.92.76c0,.42.41.76.92.76s.92-.34.92-.76Z"/>
              <path class="st5" d="M1598.78,53.56c0-.42-.41-.76-.92-.76s-.92.34-.92.76c0,.42.41.76.92.76s.92-.34.92-.76Z"/>
              <path class="st5" d="M1604.47,53.56c0-.42-.41-.76-.92-.76s-.92.34-.92.76.41.76.92.76.92-.34.92-.76Z"/>
              <path class="st5" d="M1610.16,53.56c0-.42-.41-.76-.92-.76s-.92.34-.92.76c0,.42.41.76.92.76s.92-.34.92-.76Z"/>
              <path class="st5" d="M1615.85,53.56c0-.42-.41-.76-.92-.76s-.92.34-.92.76.41.76.92.76.92-.34.92-.76Z"/>
              <path class="st5" d="M1621.54,53.56c0-.42-.41-.76-.92-.76s-.92.34-.92.76c0,.42.41.76.92.76s.92-.34.92-.76Z"/>
              <path class="st5" d="M1627.23,53.56c0-.42-.41-.76-.92-.76s-.92.34-.92.76c0,.42.41.76.92.76s.92-.34.92-.76Z"/>
              <path class="st5" d="M1632.92,53.56c0-.42-.41-.76-.92-.76s-.92.34-.92.76.41.76.92.76.92-.34.92-.76Z"/>
              <path class="st5" d="M1638.62,53.56c0-.42-.41-.76-.92-.76s-.92.34-.92.76.41.76.92.76.92-.34.92-.76Z"/>
            </g>
          </g>
        </g>
        <g>
          <path class="st0" d="M1699.96,50.67h-27.83s0,16.66,0,16.66c0,3.48,3.43,6.31,7.67,6.31h20.16s0-22.97,0-22.97Z"/>
          <path class="st14" d="M1642.72,97.9l-.8-11.12.8-11.85h0c15.37,0,27.83,10.28,27.83,22.97h-27.83Z"/>
          <path class="st10" d="M1642.72,50.67v22.97s20.16,0,20.16,0c4.24,0,7.67-2.82,7.67-6.31v-16.66s-27.83,0-27.83,0Z"/>
          <path class="st1" d="M1677.46,74.29c0-2.79-2.74-5.04-6.11-5.04s-6.11,2.26-6.11,5.04c0,2.79,2.74,5.04,6.11,5.04,3.38,0,6.11-2.26,6.11-5.04Z"/>
        </g>
      </g>
      <g>
        <rect class="st10" x="1699.99" y="37.85" width="131.28" height="107.96"/>
        <g>
          <g>
            <path class="st14" d="M1699.95,134.86s5.43-46.87,65.67-38.67l-65.67,38.67Z"/>
            <path class="st5" d="M1699.95,134.86s55.7,10.87,65.67-38.67l-65.67,38.67Z"/>
          </g>
          <g>
            <path class="st1" d="M1831.3,134.86s-5.43-46.87-65.67-38.67l65.67,38.67Z"/>
            <path class="st5" d="M1831.3,134.86s-55.7,10.87-65.67-38.67l65.67,38.67Z"/>
          </g>
          <g>
            <path class="st1" d="M1699.95,90.67s5.43-46.87,65.67-38.67l-65.67,38.67Z"/>
            <path class="st5" d="M1699.95,90.67s55.7,10.87,65.67-38.67l-65.67,38.67Z"/>
          </g>
          <g>
            <path class="st14" d="M1831.3,90.67s-5.43-46.87-65.67-38.67l65.67,38.67Z"/>
            <path class="st5" d="M1831.3,90.67s-55.7,10.87-65.67-38.67l65.67,38.67Z"/>
          </g>
        </g>
        <rect class="st5" x="1764.43" y="37.85" width="2.4" height="107.96"/>
      </g>
      <g>
        <g>
          <rect class="st1" x="1831.3" y="145.85" width="44.35" height="35.79"/>
          <polygon class="st10" points="1875.65 145.85 1853.42 145.85 1875.65 181.28 1875.65 145.85"/>
          <polygon class="st5" points="1831.3 181.64 1853.52 181.64 1831.3 146.21 1831.3 181.64"/>
          <polygon class="st14" points="1831.3 181.64 1842.51 181.64 1831.3 163.77 1831.3 181.64"/>
        </g>
        <g>
          <rect class="st1" x="1875.64" y="145.85" width="44.35" height="35.79"/>
          <g class="st13">
            <path class="st14" d="M1875.75,181.55s-1.52-17.74,21.98-17.74l-21.98,17.74Z"/>
            <path class="st5" d="M1875.75,181.55s21.98,1.22,21.98-17.74l-21.98,17.74Z"/>
          </g>
          <g class="st11">
            <path class="st0" d="M1919.88,181.55s1.52-17.74-21.98-17.74l21.98,17.74Z"/>
            <path class="st10" d="M1919.88,181.55s-21.98,1.22-21.98-17.74l21.98,17.74Z"/>
          </g>
          <g class="st2">
            <path class="st14" d="M1919.88,145.94s1.52,17.74-21.98,17.74l21.98-17.74Z"/>
            <path class="st5" d="M1919.88,145.94s-21.98-1.22-21.98,17.74l21.98-17.74Z"/>
          </g>
          <g class="st9">
            <path class="st0" d="M1875.75,145.94s-1.52,17.74,21.98,17.74l-21.98-17.74Z"/>
            <path class="st10" d="M1875.75,145.94s21.98-1.22,21.98,17.74l-21.98-17.74Z"/>
          </g>
        </g>
        <g>
          <path class="st10" d="M1875.65,217.43h-22.29c2.06,0,4.05-.23,5.94-.66,2.31-.52,4.47-1.33,6.4-2.39.88-.48,1.72-1.01,2.51-1.59.99-.73,1.89-1.53,2.71-2.39.48-.51.93-1.04,1.35-1.59.57-.76,1.07-1.56,1.49-2.39.27-.52.5-1.05.71-1.59.29-.77.52-1.57.68-2.39.1-.52.18-1.05.22-1.59.04-.41.06-.82.06-1.24,0-.03,0-.06,0-.09-.06-9.79-9.91-17.72-22.06-17.72s-22,7.92-22.06,17.72c0,.03,0,.06,0,.09v-.09s0-17.9,0-17.9h44.35v17.9s0,17.9,0,17.9Z"/>
          <path class="st10" d="M1831.58,202.46c.16.82.39,1.61.68,2.39.21.54.44,1.07.71,1.59.43.83.92,1.63,1.49,2.39.41.55.86,1.08,1.35,1.59.81.86,1.72,1.66,2.71,2.39.79.58,1.62,1.11,2.51,1.59,1.94,1.06,4.09,1.87,6.4,2.39,1.89.43,3.88.66,5.94.66h-22.06v-17.81c0,.42.02.83.06,1.24.05.54.12,1.07.22,1.59Z"/>
          <path class="st1" d="M1856.6,204.85h-24.34c-.29-.77-.52-1.57-.68-2.39h25.02s.34,0,.34,0h18.2c-.16.82-.39,1.61-.68,2.39h-17.52s-.34,0-.34,0Z"/>
          <path class="st14" d="M1856.6,212.8h-18.09c-.99-.73-1.89-1.53-2.71-2.39h20.79s.34,0,.34,0h13.97c-.81.86-1.72,1.66-2.71,2.39h-11.27s-.34,0-.34,0Z"/>
          <path class="st1" d="M1856.6,216.78h-9.18c-2.31-.52-4.47-1.33-6.4-2.39h15.58s.34,0,.34,0h8.76c-1.94,1.06-4.09,1.87-6.4,2.39h-2.36s-.34,0-.34,0Z"/>
          <path class="st0" d="M1856.6,208.82h-22.14c-.57-.76-1.07-1.56-1.49-2.39h23.63s.34,0,.34,0h16.81c-.43.83-.92,1.63-1.49,2.39h-15.32s-.34,0-.34,0Z"/>
          <path class="st0" d="M1875.42,199.54s0,.06,0,.09c0,.42-.02.83-.06,1.24h-18.42s-.34,0-.34,0h-25.24c-.04-.41-.06-.82-.06-1.24,0-.03,0-.06,0-.09h44.12Z"/>
          <path class="st14" d="M1856.6,202.46h-25.02c-.1-.52-.18-1.05-.22-1.59h25.24s.34,0,.34,0h18.42c-.05.54-.12,1.07-.22,1.59h-18.2s-.34,0-.34,0Z"/>
          <path class="st1" d="M1856.6,210.41h-20.79c-.48-.51-.93-1.04-1.35-1.59h22.14s.34,0,.34,0h15.32c-.41.55-.86,1.08-1.35,1.59h-13.97s-.34,0-.34,0Z"/>
          <path class="st5" d="M1856.6,206.44h-23.63c-.27-.52-.5-1.05-.71-1.59h24.34s.34,0,.34,0h17.52c-.21.54-.44,1.07-.71,1.59h-16.81s-.34,0-.34,0Z"/>
          <path class="st5" d="M1856.6,214.39h-15.58c-.88-.48-1.72-1.01-2.51-1.59h18.09s.34,0,.34,0h11.27c-.79.58-1.62,1.11-2.51,1.59h-8.76s-.34,0-.34,0Z"/>
          <path class="st5" d="M1856.6,216.78h.34s2.36,0,2.36,0c-1.89.43-3.88.66-5.94.66s-4.05-.23-5.94-.66h9.18Z"/>
          <path class="st14" d="M1831.3,199.54c.06-9.79,9.91-17.72,22.06-17.72s22,7.92,22.06,17.72h-44.12Z"/>
        </g>
        <g>
          <polygon class="st0" points="1897.78 184.96 1897.78 186.55 1897.78 188.94 1897.78 190.53 1897.78 192.91 1897.78 194.51 1897.78 196.89 1897.78 198.48 1897.78 200.87 1897.78 202.46 1897.78 204.85 1897.78 206.44 1897.78 208.82 1897.78 210.41 1897.78 212.8 1897.78 214.39 1897.78 216.78 1897.78 217.43 1875.65 217.43 1875.65 181.64 1897.78 181.64 1897.78 182.58 1897.78 184.96"/>
          <polygon class="st5" points="1905.88 200.87 1897.78 200.87 1897.78 198.48 1905.88 198.48 1906.22 198.48 1920 198.48 1920 200.87 1906.22 200.87 1905.88 200.87"/>
          <polygon class="st5" points="1905.88 204.85 1897.78 204.85 1897.78 202.46 1905.88 202.46 1906.22 202.46 1920 202.46 1920 204.85 1906.22 204.85 1905.88 204.85"/>
          <polygon class="st5" points="1905.88 196.89 1897.78 196.89 1897.78 194.51 1905.88 194.51 1906.22 194.51 1920 194.51 1920 196.89 1906.22 196.89 1905.88 196.89"/>
          <polygon class="st5" points="1906.22 216.78 1905.88 216.78 1897.78 216.78 1897.78 214.39 1905.88 214.39 1906.22 214.39 1920 214.39 1920 216.78 1906.22 216.78"/>
          <polygon class="st5" points="1905.88 208.82 1897.78 208.82 1897.78 206.44 1905.88 206.44 1906.22 206.44 1920 206.44 1920 208.82 1906.22 208.82 1905.88 208.82"/>
          <polygon class="st5" points="1905.88 212.8 1897.78 212.8 1897.78 210.41 1905.88 210.41 1906.22 210.41 1920 210.41 1920 212.8 1906.22 212.8 1905.88 212.8"/>
          <polygon class="st5" points="1905.88 188.94 1897.78 188.94 1897.78 186.55 1905.88 186.55 1906.22 186.55 1920 186.55 1920 188.94 1906.22 188.94 1905.88 188.94"/>
          <polygon class="st5" points="1905.88 192.91 1897.78 192.91 1897.78 190.53 1905.88 190.53 1906.22 190.53 1920 190.53 1920 192.91 1906.22 192.91 1905.88 192.91"/>
          <polygon class="st5" points="1905.88 184.96 1897.78 184.96 1897.78 182.58 1905.88 182.58 1906.22 182.58 1920 182.58 1920 184.96 1906.22 184.96 1905.88 184.96"/>
          <polygon class="st1" points="1905.88 186.55 1897.78 186.55 1897.78 184.96 1905.88 184.96 1906.22 184.96 1920 184.96 1920 186.55 1906.22 186.55 1905.88 186.55"/>
          <polygon class="st1" points="1905.88 194.51 1897.78 194.51 1897.78 192.91 1905.88 192.91 1906.22 192.91 1920 192.91 1920 194.51 1906.22 194.51 1905.88 194.51"/>
          <polygon class="st1" points="1905.88 202.46 1897.78 202.46 1897.78 200.87 1905.88 200.87 1906.22 200.87 1920 200.87 1920 202.46 1906.22 202.46 1905.88 202.46"/>
          <polygon class="st1" points="1905.88 210.41 1897.78 210.41 1897.78 208.82 1905.88 208.82 1906.22 208.82 1920 208.82 1920 210.41 1906.22 210.41 1905.88 210.41"/>
          <polygon class="st14" points="1905.88 182.58 1897.78 182.58 1897.78 181.64 1920 181.64 1920 182.58 1906.22 182.58 1905.88 182.58"/>
          <polygon class="st14" points="1905.88 190.53 1897.78 190.53 1897.78 188.94 1905.88 188.94 1906.22 188.94 1920 188.94 1920 190.53 1906.22 190.53 1905.88 190.53"/>
          <polygon class="st14" points="1905.88 198.48 1897.78 198.48 1897.78 196.89 1905.88 196.89 1906.22 196.89 1920 196.89 1920 198.48 1906.22 198.48 1905.88 198.48"/>
          <polygon class="st14" points="1905.88 206.44 1897.78 206.44 1897.78 204.85 1905.88 204.85 1906.22 204.85 1920 204.85 1920 206.44 1906.22 206.44 1905.88 206.44"/>
          <polygon class="st14" points="1905.88 214.39 1897.78 214.39 1897.78 212.8 1905.88 212.8 1906.22 212.8 1920 212.8 1920 214.39 1906.22 214.39 1905.88 214.39"/>
          <polygon class="st1" points="1905.88 216.78 1906.22 216.78 1920 216.78 1920 217.43 1897.78 217.43 1897.78 216.78 1905.88 216.78"/>
        </g>
      </g>
      <g>
        <g>
          <rect class="st1" x="1526.64" y="0" width="57.78" height="50.66"/>
          <polygon class="st0" points="1526.64 50.67 1584.41 0 1584.41 50.67 1526.64 50.67"/>
          <path class="st4" d="M1526.64,24.54v-7.56c11.41,0,20.65-7.6,20.65-16.98h9.19c0,13.55-13.36,24.53-29.84,24.53Z"/>
          <path class="st10" d="M1526.64,17.06v-6.55c7.05,0,12.77-4.7,12.77-10.5h7.97c0,9.42-9.29,17.05-20.74,17.05Z"/>
          <path class="st14" d="M1526.64,0h12.82c0,5.82-5.74,10.54-12.82,10.54h0V0Z"/>
        </g>
        <g>
          <rect class="st14" x="1642.18" y="0" width="57.78" height="50.66"/>
          <polygon class="st4" points="1693.16 24.04 1665.81 0 1647.59 0 1674.93 24.04 1693.16 24.04"/>
        </g>
        <polygon class="st1" points="1699.96 50.66 1642.18 0 1613.3 0 1642.18 25.33 1642.18 25.34 1671.07 50.66 1699.96 50.66"/>
        <g>
          <rect class="st0" x="1584.41" y="0" width="57.77" height="50.66"/>
          <polygon class="st1" points="1642.19 50.67 1584.41 50.67 1584.41 0 1642.19 50.67"/>
          <polygon class="st4" points="1613.3 25.33 1642.19 25.33 1642.19 50.67 1613.3 25.33"/>
          <polygon class="st10" points="1642.18 25.33 1642.18 0 1613.3 0 1642.18 25.33"/>
          <polygon class="st1" points="1625.24 30.06 1642.19 30.06 1642.19 44.93 1625.24 30.06"/>
        </g>
        <g>
          <ellipse class="st4" cx="1584.41" cy="40.74" rx="7.72" ry="6.35"/>
          <ellipse class="st10" cx="1584.41" cy="25.33" rx="5.98" ry="4.91"/>
          <ellipse class="st14" cx="1584.41" cy="11.87" rx="4.71" ry="3.87"/>
        </g>
      </g>
      <g>
        <g>
          <rect class="st5" x="1746.48" y=".19" width="42.41" height="37.81"/>
          <path class="st0" d="M1776.07.19h-29.59s0,26.38,0,26.38h15.06c8.03,0,14.54-5.35,14.54-11.95V.19Z"/>
          <g>
            <path class="st10" d="M1758.41,22.76c-3.6,3.22-3.77,7.98-3.77,7.98,0,0,5.67-.45,9.28-3.67,3.6-3.22,3.77-7.98,3.77-7.98,0,0-5.67.45-9.28,3.67Z"/>
            <path class="st1" d="M1776.96,22.76c3.6,3.22,3.77,7.98,3.77,7.98,0,0-5.67-.45-9.28-3.67-3.6-3.22-3.77-7.98-3.77-7.98,0,0,5.67.45,9.28,3.67Z"/>
            <path class="st1" d="M1758.41,15.42c-3.6-3.22-3.77-7.98-3.77-7.98,0,0,5.67.45,9.28,3.67,3.6,3.22,3.77,7.98,3.77,7.98,0,0-5.67-.45-9.28-3.67Z"/>
            <path class="st10" d="M1776.96,15.42c3.6-3.22,3.77-7.98,3.77-7.98,0,0-5.67.45-9.28,3.67-3.6,3.22-3.77,7.98-3.77,7.98,0,0,5.67-.45,9.28-3.67Z"/>
          </g>
        </g>
        <g>
          <polygon class="st4" points="1810.09 11.22 1810.09 19.09 1788.89 .19 1797.72 .19 1810.09 11.22"/>
          <polygon class="st10" points="1810.09 11.22 1810.09 19.09 1831.3 .19 1822.47 .19 1810.09 11.22"/>
          <polygon class="st0" points="1831.3 .19 1810.09 19.09 1831.3 38 1831.3 .19"/>
          <polygon class="st14" points="1788.89 .19 1788.89 38 1831.3 38 1788.89 .19"/>
          <polygon class="st4" points="1797.33 35.11 1810.09 23.73 1822.86 35.11 1797.33 35.11"/>
          <path class="st10" d="M1803.36,19.09c0-1.79-1.73-3.24-3.87-3.24s-3.87,1.45-3.87,3.24c0,1.79,1.73,3.24,3.87,3.24s3.87-1.45,3.87-3.24Z"/>
          <ellipse class="st1" cx="1820.69" cy="19.09" rx="3.87" ry="3.24"/>
          <polygon class="st0" points="1810.09 11.22 1810.09 .19 1797.72 .19 1810.09 11.22"/>
          <polygon class="st14" points="1810.09 11.22 1810.09 .19 1822.47 .19 1810.09 11.22"/>
        </g>
      </g>
      <g>
        <rect class="st10" x="1831.3" y=".03" width="88.7" height="73.11"/>
        <path class="st1" d="M1831.3,73.14h88.7s0-44.6,0-44.6c0-15.66-15.43-28.35-34.47-28.35h-54.23s0,72.95,0,72.95Z"/>
        <rect class="st0" x="1831.3" y="72.9" width="88.7" height="72.95"/>
        <g>
          <path class="st10" d="M1870.47,79.12c0-1.24,1.23-2.25,2.73-2.25s2.73,1.01,2.73,2.25c0,1.24-1.23,2.25-2.73,2.25-1.51,0-2.73-1.01-2.73-2.25ZM1870.97,79.12c0,1.02,1,1.84,2.24,1.84s2.24-.83,2.24-1.84c0-1.02-1-1.84-2.24-1.84s-2.24.83-2.24,1.84Z"/>
          <path class="st5" d="M1859.14,79.12c0-1.24,1.23-2.25,2.73-2.25s2.73,1.01,2.73,2.25-1.23,2.25-2.73,2.25-2.73-1.01-2.73-2.25ZM1859.64,79.12c0,1.02,1,1.84,2.24,1.84s2.24-.83,2.24-1.84c0-1.02-1-1.84-2.24-1.84s-2.24.83-2.24,1.84Z"/>
          <path class="st14" d="M1847.81,79.12c0-1.24,1.23-2.25,2.73-2.25s2.73,1.01,2.73,2.25-1.23,2.25-2.73,2.25-2.73-1.01-2.73-2.25ZM1848.3,79.12c0,1.02,1,1.84,2.24,1.84s2.24-.83,2.24-1.84c0-1.02-1-1.84-2.24-1.84s-2.24.83-2.24,1.84Z"/>
          <path class="st1" d="M1836.48,79.12c0-1.24,1.23-2.25,2.73-2.25s2.73,1.01,2.73,2.25c0,1.24-1.23,2.25-2.73,2.25-1.51,0-2.73-1.01-2.73-2.25ZM1836.97,79.12c0,1.02,1,1.84,2.24,1.84s2.24-.83,2.24-1.84-1-1.84-2.24-1.84c-1.24,0-2.24.83-2.24,1.84Z"/>
          <path class="st1" d="M1870.61,88.33c0-1.24,1.23-2.25,2.73-2.25,1.51,0,2.73,1.01,2.73,2.25,0,1.24-1.23,2.25-2.73,2.25s-2.73-1.01-2.73-2.25ZM1871.1,88.33c0,1.02,1,1.84,2.24,1.84s2.24-.83,2.24-1.84-1-1.84-2.24-1.84-2.24.83-2.24,1.84Z"/>
          <path class="st10" d="M1859.28,88.33c0-1.24,1.23-2.25,2.73-2.25s2.73,1.01,2.73,2.25-1.23,2.25-2.73,2.25-2.73-1.01-2.73-2.25ZM1859.77,88.33c0,1.02,1,1.84,2.24,1.84s2.24-.83,2.24-1.84-1-1.84-2.24-1.84-2.24.83-2.24,1.84Z"/>
          <path class="st5" d="M1847.95,88.33c0-1.24,1.23-2.25,2.73-2.25s2.73,1.01,2.73,2.25-1.23,2.25-2.73,2.25-2.73-1.01-2.73-2.25ZM1848.44,88.33c0,1.02,1,1.84,2.24,1.84s2.24-.83,2.24-1.84-1-1.84-2.24-1.84-2.24.83-2.24,1.84Z"/>
          <path class="st14" d="M1836.62,88.33c0-1.24,1.23-2.25,2.73-2.25s2.73,1.01,2.73,2.25c0,1.24-1.23,2.25-2.73,2.25s-2.73-1.01-2.73-2.25ZM1837.11,88.33c0,1.02,1,1.84,2.24,1.84s2.24-.83,2.24-1.84c0-1.02-1-1.84-2.24-1.84-1.24,0-2.24.83-2.24,1.84Z"/>
          <path class="st14" d="M1870.75,97.53c0-1.24,1.23-2.25,2.73-2.25s2.73,1.01,2.73,2.25-1.23,2.25-2.73,2.25-2.73-1.01-2.73-2.25ZM1871.24,97.53c0,1.02,1,1.84,2.24,1.84s2.24-.83,2.24-1.84c0-1.02-1-1.84-2.24-1.84s-2.24.83-2.24,1.84Z"/>
          <path class="st1" d="M1859.42,97.53c0-1.24,1.23-2.25,2.73-2.25s2.73,1.01,2.73,2.25-1.23,2.25-2.73,2.25-2.73-1.01-2.73-2.25ZM1859.91,97.53c0,1.02,1,1.84,2.24,1.84s2.24-.83,2.24-1.84-1-1.84-2.24-1.84-2.24.83-2.24,1.84Z"/>
          <path class="st10" d="M1848.09,97.53c0-1.24,1.23-2.25,2.73-2.25s2.73,1.01,2.73,2.25-1.23,2.25-2.73,2.25-2.73-1.01-2.73-2.25ZM1848.58,97.53c0,1.02,1,1.84,2.24,1.84s2.24-.83,2.24-1.84-1-1.84-2.24-1.84-2.24.83-2.24,1.84Z"/>
          <path class="st5" d="M1836.76,97.53c0-1.24,1.23-2.25,2.73-2.25s2.73,1.01,2.73,2.25c0,1.24-1.23,2.25-2.73,2.25s-2.73-1.01-2.73-2.25ZM1837.25,97.53c0,1.02,1,1.84,2.24,1.84s2.24-.83,2.24-1.84c0-1.02-1-1.84-2.24-1.84s-2.24.83-2.24,1.84Z"/>
          <path class="st5" d="M1870.89,106.74c0-1.24,1.23-2.25,2.73-2.25s2.73,1.01,2.73,2.25-1.23,2.25-2.73,2.25-2.73-1.01-2.73-2.25ZM1871.38,106.74c0,1.02,1,1.84,2.24,1.84s2.24-.83,2.24-1.84-1-1.84-2.24-1.84-2.24.83-2.24,1.84Z"/>
          <path class="st14" d="M1859.56,106.74c0-1.24,1.23-2.25,2.73-2.25,1.51,0,2.73,1.01,2.73,2.25s-1.23,2.25-2.73,2.25c-1.51,0-2.73-1.01-2.73-2.25ZM1860.05,106.74c0,1.02,1,1.84,2.24,1.84s2.24-.83,2.24-1.84-1-1.84-2.24-1.84-2.24.83-2.24,1.84Z"/>
          <path class="st1" d="M1848.23,106.74c0-1.24,1.23-2.25,2.73-2.25s2.73,1.01,2.73,2.25-1.23,2.25-2.73,2.25-2.73-1.01-2.73-2.25ZM1848.72,106.74c0,1.02,1,1.84,2.24,1.84s2.24-.83,2.24-1.84-1-1.84-2.24-1.84-2.24.83-2.24,1.84Z"/>
          <path class="st10" d="M1836.89,106.74c0-1.24,1.23-2.25,2.73-2.25s2.73,1.01,2.73,2.25c0,1.24-1.23,2.25-2.73,2.25s-2.73-1.01-2.73-2.25ZM1837.39,106.74c0,1.02,1,1.84,2.24,1.84s2.24-.83,2.24-1.84-1-1.84-2.24-1.84c-1.24,0-2.24.83-2.24,1.84Z"/>
        </g>
        <g>
          <rect class="st14" x="1831.45" y="112.16" width="70.34" height="28.74"/>
          <ellipse class="st10" cx="1897.43" cy="126.58" rx="17.89" ry="14.72"/>
          <path class="st5" d="M1882.4,126.58c0-6.82,6.74-12.36,15.03-12.36,8.29,0,15.03,5.55,15.03,12.36,0,6.82-6.74,12.36-15.03,12.36-8.29,0-15.03-5.55-15.03-12.36ZM1883.52,126.58c0,6.31,6.24,11.44,13.91,11.44,7.67,0,13.91-5.13,13.91-11.44,0-6.31-6.24-11.44-13.91-11.44-7.67,0-13.91,5.13-13.91,11.44Z"/>
          <path class="st5" d="M1887.48,126.58c0-4.51,4.47-8.19,9.95-8.19,5.49,0,9.95,3.67,9.95,8.19s-4.47,8.19-9.95,8.19-9.95-3.67-9.95-8.19ZM1888.6,126.58c0,4,3.96,7.26,8.83,7.26s8.83-3.26,8.83-7.26-3.96-7.26-8.83-7.26c-4.87,0-8.83,3.26-8.83,7.26Z"/>
          <path class="st5" d="M1892.59,126.58c0-2.19,2.17-3.98,4.84-3.98s4.84,1.79,4.84,3.98-2.17,3.98-4.84,3.98c-2.67,0-4.84-1.79-4.84-3.98ZM1893.72,126.58c0,1.68,1.67,3.05,3.71,3.05s3.71-1.37,3.71-3.05-1.67-3.05-3.71-3.05-3.71,1.37-3.71,3.05Z"/>
          <rect class="st10" x="1834.27" y="118.82" width="4.58" height=".93"/>
          <rect class="st10" x="1846.01" y="118.82" width="18.27" height=".93"/>
          <rect class="st10" x="1874.53" y="118.82" width="2.51" height=".93"/>
          <rect class="st5" x="1833.7" y="125.76" width="15.93" height=".93"/>
          <rect class="st5" x="1859.97" y="125.76" width="16.5" height=".93"/>
          <rect class="st1" x="1834.27" y="134.09" width="7.93" height=".93"/>
          <rect class="st1" x="1849.3" y="134.09" width="13.32" height=".93"/>
          <rect class="st1" x="1871.7" y="134.09" width="5.34" height=".93"/>
        </g>
        <path class="st5" d="M1894.04,79.02h8.19c1.62,0,2.94-1.09,2.94-2.42v-6.74c0-1.33-1.32-2.42-2.94-2.42h-8.19c-1.62,0-2.94,1.09-2.94,2.42v6.74c0,1.33,1.32,2.42,2.94,2.42Z"/>
        <g>
          <path class="st10" d="M1844.31,38.06c0-13.95,13.8-25.29,30.76-25.29,16.96,0,30.75,11.35,30.75,25.29,0,13.95-13.8,25.29-30.76,25.29-16.96,0-30.75-11.35-30.75-25.29ZM1847.69,38.06c0,12.42,12.28,22.52,27.38,22.52h0c15.1,0,27.38-10.1,27.38-22.52,0-12.42-12.28-22.52-27.38-22.52-15.1,0-27.38,10.1-27.38,22.52Z"/>
          <path class="st0" d="M1851.3,38.06c0-10.78,10.66-19.54,23.76-19.54,13.1,0,23.76,8.77,23.76,19.54,0,10.78-10.66,19.54-23.76,19.54-13.1,0-23.76-8.77-23.76-19.54ZM1852.99,38.06c0,10.01,9.9,18.15,22.07,18.15h0c12.17,0,22.07-8.14,22.07-18.15,0-10.01-9.9-18.15-22.07-18.15-12.17,0-22.07,8.14-22.07,18.15Z"/>
          <path class="st5" d="M1854.64,38.06c0-9.26,9.16-16.8,20.42-16.8,11.26,0,20.42,7.53,20.42,16.8,0,9.26-9.16,16.8-20.42,16.8-11.26,0-20.42-7.53-20.42-16.8ZM1856.09,38.06c0,8.6,8.51,15.6,18.97,15.6h0c10.46,0,18.97-7,18.97-15.6,0-8.6-8.51-15.6-18.97-15.6-10.46,0-18.97,7-18.97,15.6Z"/>
          <path class="st14" d="M1875.06,43.39h0c3.56,0,6.47-2.39,6.47-5.32h0c0-2.93-2.91-5.32-6.47-5.32h0c-3.56,0-6.47,2.39-6.47,5.32h0c0,2.93,2.91,5.32,6.47,5.32Z"/>
        </g>
        <path class="st0" d="M1837.08,64.67c0-2.55,2.52-4.63,5.63-4.63s5.63,2.08,5.63,4.63-2.52,4.63-5.63,4.63-5.63-2.08-5.63-4.63ZM1838.2,64.67c0,2.04,2.02,3.7,4.5,3.7,2.48,0,4.5-1.66,4.5-3.7,0-2.04-2.02-3.7-4.5-3.7s-4.5,1.66-4.5,3.7Z"/>
        <path class="st5" d="M1839.85,55.38c0-1.55,1.53-2.81,3.42-2.81,1.88,0,3.42,1.26,3.42,2.81,0,1.55-1.53,2.81-3.42,2.81s-3.42-1.26-3.42-2.81ZM1840.98,55.38c0,1.04,1.03,1.89,2.29,1.89s2.29-.85,2.29-1.89c0-1.04-1.03-1.89-2.29-1.89s-2.29.85-2.29,1.89Z"/>
        <path class="st5" d="M1851.11,65.57c0-1.55,1.53-2.81,3.42-2.81s3.42,1.26,3.42,2.81c0,1.55-1.53,2.81-3.42,2.81s-3.42-1.26-3.42-2.81ZM1852.23,65.57c0,1.04,1.03,1.89,2.29,1.89s2.29-.85,2.29-1.89c0-1.04-1.03-1.89-2.29-1.89s-2.29.85-2.29,1.89Z"/>
        <path class="st5" d="M1911.56,59.03c.47,0,.84-.31.84-.69v-22.99c0-15.61-15.44-28.31-34.42-28.31h-27.96c-.47,0-.84.31-.84.69,0,.38.38.69.84.69h27.96c18.05,0,32.74,12.08,32.74,26.92v22.99c0,.38.38.69.84.69Z"/>
      </g>
      <g>
        <rect class="st1" x="1526.64" y="145.81" width="86.74" height="71.63"/>
        <rect class="st14" x="1613.22" y="145.85" width="86.74" height="71.59"/>
        <path class="st0" d="M1539.89,208.64c0-1.69-1.66-3.05-3.71-3.05s-3.71,1.37-3.71,3.05,1.66,3.05,3.71,3.05,3.71-1.37,3.71-3.05Z"/>
        <path class="st14" d="M1607.58,208.64c0-1.69-1.66-3.05-3.71-3.05s-3.71,1.37-3.71,3.05c0,1.69,1.66,3.05,3.71,3.05s3.71-1.37,3.71-3.05Z"/>
        <path class="st14" d="M1539.89,152.98c0-1.69-1.66-3.05-3.71-3.05s-3.71,1.37-3.71,3.05c0,1.69,1.66,3.05,3.71,3.05,2.05,0,3.71-1.37,3.71-3.05Z"/>
        <path class="st0" d="M1607.58,152.98c0-1.69-1.66-3.05-3.71-3.05-2.05,0-3.71,1.37-3.71,3.05,0,1.69,1.66,3.05,3.71,3.05s3.71-1.37,3.71-3.05Z"/>
        <g>
          <path class="st10" d="M1692.59,180.47c0,16.28-16.11,29.53-35.91,29.53-19.8,0-35.91-13.25-35.91-29.53,0-16.28,16.11-29.53,35.91-29.53,19.8,0,35.91,13.25,35.91,29.53ZM1690.94,180.47c0-15.53-15.37-28.17-34.26-28.17-18.89,0-34.26,12.64-34.26,28.17,0,15.53,15.37,28.17,34.26,28.17,18.89,0,34.26-12.64,34.26-28.17Z"/>
          <path class="st0" d="M1684.48,180.47c0,12.6-12.47,22.85-27.79,22.85-15.32,0-27.79-10.25-27.79-22.85,0-12.6,12.46-22.85,27.79-22.85,15.32,0,27.79,10.25,27.79,22.85ZM1682.82,180.47c0-11.85-11.72-21.49-26.14-21.49s-26.14,9.64-26.14,21.49c0,11.85,11.72,21.49,26.14,21.49,14.41,0,26.14-9.64,26.14-21.49Z"/>
          <path class="st5" d="M1676.6,180.47c0,9.03-8.93,16.37-19.91,16.37s-19.91-7.34-19.91-16.37c0-9.03,8.93-16.37,19.91-16.37,10.98,0,19.91,7.34,19.91,16.37ZM1674.95,180.47c0-8.28-8.19-15.01-18.26-15.01-10.07,0-18.26,6.74-18.26,15.01s8.19,15.01,18.26,15.01c10.07,0,18.26-6.74,18.26-15.01Z"/>
          <path class="st10" d="M1668.66,180.47c0,5.43-5.37,9.85-11.97,9.85-6.6,0-11.97-4.42-11.97-9.85,0-5.43,5.37-9.85,11.97-9.85s11.97,4.42,11.97,9.85ZM1667.01,180.47c0-4.68-4.63-8.49-10.32-8.49s-10.32,3.81-10.32,8.49,4.63,8.49,10.32,8.49,10.32-3.81,10.32-8.49Z"/>
        </g>
        <path class="st0" d="M1585.44,181.55s33.36,29.5,67.53-.95c0,0-30.7-31.44-67.53.95Z"/>
        <path class="st5" d="M1652.73,180.81c-34.08,30.1-67.29.74-67.29.74.29-.26.58-.49.87-.74h66.42Z"/>
        <g>
          <g>
            <path class="st10" d="M1572.37,177.33l15.5,24.29c1.28,2.95-.62,6.23-4.21,7.28-3.59,1.05-7.57-.51-8.85-3.46l-6.61-26.89,4.17-1.22Z"/>
            <path class="st10" d="M1570.48,185.83l-15.5-24.29c-1.28-2.95.62-6.23,4.21-7.28,3.59-1.05,7.57.51,8.85,3.46l6.61,26.89-4.17,1.22Z"/>
            <path class="st10" d="M1564.05,180.51l29.07-13.45c3.55-1.13,7.59.33,8.97,3.25,1.38,2.92-.4,6.24-3.95,7.38l-32.49,6.22-1.6-3.39Z"/>
            <path class="st10" d="M1576.37,178.42l-32.87,4.65c-3.63.96-5.64,4.19-4.47,7.17,1.17,2.98,5.1,4.64,8.72,3.67l29.98-12.03-1.36-3.46Z"/>
            <path class="st10" d="M1575.86,177.37l-9.93,26.19c-1.64,2.83-5.79,4.04-9.24,2.7-3.44-1.35-4.92-4.76-3.28-7.6l18.45-22.85,4,1.56Z"/>
            <path class="st10" d="M1566.22,184l9.93-26.19c1.64-2.83,5.79-4.04,9.24-2.7,3.44,1.35,4.92,4.76,3.28,7.6l-18.45,22.85-4-1.56Z"/>
            <path class="st10" d="M1566.35,177.05l32.12,7.4c3.49,1.26,5.08,4.64,3.55,7.51-1.54,2.87-5.65,4.18-9.14,2.92l-28.32-14.5,1.78-3.33Z"/>
            <path class="st10" d="M1577.43,181.39l-27.24-15.83c-3.39-1.43-7.59-.32-9.33,2.47-1.74,2.79-.38,6.24,3.01,7.67l31.54,8.93,2.02-3.24Z"/>
          </g>
          <g>
            <g>
              <path class="st1" d="M1577.4,168.99c-.2,0-.39.09-.48.25-.25.46-12.3,22.47-12.3,22.47l.95.35s12.05-22.01,12.3-22.47c.12-.22,0-.47-.26-.57-.07-.03-.14-.04-.21-.04Z"/>
              <path class="st1" d="M1557.59,175.17c-.2,0-.39.09-.48.25-.12.22,0,.47.26.57.56.21,27.32,10.12,27.32,10.12l.43-.78s-26.76-9.91-27.32-10.12c-.07-.03-.14-.04-.21-.04Z"/>
            </g>
            <g>
              <path class="st1" d="M1565.94,168.7c-.06,0-.12,0-.18.03-.27.08-.41.33-.3.55.22.47,10.62,23.04,10.62,23.04l.98-.31s-10.4-22.57-10.62-23.04c-.08-.17-.28-.28-.49-.28Z"/>
              <path class="st1" d="M1585.07,175.88s-27.44,8.56-28.02,8.74c-.27.08-.41.33-.3.55.1.22.41.33.67.25.58-.18,28.02-8.74,28.02-8.74l-.37-.8Z"/>
            </g>
          </g>
          <path class="st14" d="M1578.63,178.5c-1.4-3.24-5.73-4.94-9.68-3.79-3.94,1.15-6.01,4.72-4.6,7.96,1.4,3.24,5.73,4.94,9.68,3.79,3.94-1.15,6.01-4.72,4.61-7.96Z"/>
          <path class="st0" d="M1575.51,179.41c-.79-1.83-3.23-2.78-5.45-2.13s-3.38,2.66-2.59,4.48c.79,1.83,3.23,2.78,5.45,2.13,2.22-.65,3.38-2.66,2.59-4.48Z"/>
          <path class="st1" d="M1567.02,192.8c0-1.03-1.01-1.86-2.27-1.86s-2.27.83-2.27,1.86,1.01,1.86,2.27,1.86,2.27-.83,2.27-1.86Z"/>
          <path class="st1" d="M1579.22,193.09c0-1.03-1.01-1.86-2.27-1.86s-2.27.83-2.27,1.86,1.01,1.86,2.27,1.86,2.27-.83,2.27-1.86Z"/>
          <path class="st1" d="M1587.41,185.92c0-1.03-1.01-1.86-2.27-1.86s-2.27.83-2.27,1.86,1.01,1.86,2.27,1.86,2.27-.83,2.27-1.86Z"/>
          <path class="st1" d="M1588.28,176.32c0-1.03-1.01-1.86-2.27-1.86s-2.27.83-2.27,1.86,1.01,1.86,2.27,1.86,2.27-.83,2.27-1.86Z"/>
          <path class="st1" d="M1579.92,169.15c0-1.03-1.01-1.86-2.27-1.86s-2.27.83-2.27,1.86,1.01,1.86,2.27,1.86,2.27-.83,2.27-1.86Z"/>
          <path class="st1" d="M1568.41,169.15c0-1.03-1.01-1.86-2.27-1.86s-2.27.83-2.27,1.86c0,1.03,1.01,1.86,2.27,1.86s2.27-.83,2.27-1.86Z"/>
          <path class="st1" d="M1559.7,175.32c0-1.03-1.01-1.86-2.27-1.86s-2.27.83-2.27,1.86c0,1.03,1.01,1.86,2.27,1.86s2.27-.83,2.27-1.86Z"/>
          <path class="st1" d="M1558.66,185.06c0-1.03-1.01-1.86-2.27-1.86s-2.27.83-2.27,1.86,1.01,1.86,2.27,1.86,2.27-.83,2.27-1.86Z"/>
        </g>
      </g>
      <g>
        <g>
          <rect class="st10" x="1744.55" y="217.43" width="88.58" height="71.68"/>
          <g>
            <g>
              <g>
                <polygon class="st1" points="1787.67 258.26 1781.43 253.14 1762.27 268.87 1768.51 273.99 1787.67 258.26"/>
                <polygon class="st1" points="1768.51 253.14 1762.27 258.26 1781.43 273.99 1787.67 268.87 1768.51 253.14"/>
              </g>
              <g>
                <polygon class="st14" points="1812.96 258.26 1806.72 253.14 1787.55 268.87 1793.79 273.99 1812.96 258.26"/>
                <polygon class="st14" points="1793.79 253.14 1787.55 258.26 1806.72 273.99 1812.96 268.87 1793.79 253.14"/>
              </g>
            </g>
            <g>
              <g>
                <polygon class="st5" points="1787.67 237.68 1781.43 232.55 1762.27 248.28 1768.51 253.4 1787.67 237.68"/>
                <polygon class="st5" points="1768.51 232.55 1762.27 237.68 1781.43 253.4 1787.67 248.28 1768.51 232.55"/>
              </g>
              <g>
                <polygon class="st0" points="1812.96 237.68 1806.72 232.55 1787.55 248.28 1793.79 253.4 1812.96 237.68"/>
                <polygon class="st0" points="1793.79 232.55 1787.55 237.68 1806.72 253.4 1812.96 248.28 1793.79 232.55"/>
              </g>
            </g>
          </g>
        </g>
        <g>
          <rect class="st1" x="1833.13" y="217.43" width="86.87" height="71.63"/>
          <path class="st0" d="M1846.4,280.27c0-1.69-1.67-3.05-3.72-3.05s-3.72,1.37-3.72,3.05c0,1.69,1.67,3.05,3.72,3.05s3.72-1.37,3.72-3.05Z"/>
          <path class="st14" d="M1914.19,280.27c0-1.69-1.67-3.05-3.72-3.05s-3.72,1.37-3.72,3.05,1.67,3.05,3.72,3.05,3.72-1.37,3.72-3.05Z"/>
          <path class="st14" d="M1846.4,224.61c0-1.69-1.67-3.05-3.72-3.05s-3.72,1.37-3.72,3.05,1.67,3.05,3.72,3.05,3.72-1.37,3.72-3.05Z"/>
          <path class="st0" d="M1914.19,224.61c0-1.69-1.67-3.05-3.72-3.05s-3.72,1.37-3.72,3.05,1.67,3.05,3.72,3.05,3.72-1.37,3.72-3.05Z"/>
          <g>
            <g>
              <path class="st10" d="M1878.93,248.96l15.52,24.29c1.28,2.95-.62,6.23-4.22,7.28-3.6,1.05-7.59-.51-8.86-3.46l-6.62-26.89,4.18-1.22Z"/>
              <path class="st10" d="M1877.04,257.46l-15.52-24.29c-1.28-2.95.62-6.23,4.22-7.28,3.6-1.05,7.59.51,8.86,3.46l6.62,26.89-4.18,1.22Z"/>
              <path class="st10" d="M1870.6,252.14l29.11-13.45c3.56-1.13,7.6.33,8.98,3.25,1.38,2.92-.4,6.24-3.96,7.38l-32.53,6.22-1.6-3.39Z"/>
              <path class="st10" d="M1882.94,250.05l-32.92,4.65c-3.63.96-5.65,4.19-4.47,7.17,1.17,2.98,5.1,4.64,8.74,3.67l30.02-12.03-1.36-3.46Z"/>
              <path class="st10" d="M1882.42,249l-9.94,26.19c-1.64,2.83-5.8,4.04-9.25,2.7-3.45-1.35-4.92-4.76-3.28-7.6l18.47-22.85,4,1.56Z"/>
              <path class="st10" d="M1872.77,255.62l9.94-26.19c1.64-2.83,5.8-4.04,9.25-2.7,3.45,1.35,4.92,4.76,3.28,7.6l-18.47,22.85-4-1.56Z"/>
              <path class="st10" d="M1872.9,248.68l32.17,7.4c3.49,1.26,5.09,4.64,3.55,7.51-1.54,2.87-5.66,4.18-9.15,2.92l-28.36-14.5,1.79-3.33Z"/>
              <path class="st10" d="M1884,253.02l-27.28-15.83c-3.4-1.43-7.6-.32-9.34,2.47-1.74,2.79-.38,6.24,3.01,7.67l31.59,8.93,2.02-3.24Z"/>
            </g>
            <g>
              <g>
                <path class="st1" d="M1883.96,240.62c-.2,0-.39.09-.48.25-.25.46-12.32,22.47-12.32,22.47l.95.35s12.06-22.01,12.32-22.47c.12-.22,0-.47-.26-.57-.07-.03-.14-.04-.21-.04Z"/>
                <path class="st1" d="M1864.12,246.79c-.2,0-.39.09-.48.25-.12.22,0,.47.26.57.56.21,27.36,10.12,27.36,10.12l.43-.78s-26.8-9.91-27.36-10.12c-.07-.03-.14-.04-.21-.04Z"/>
              </g>
              <g>
                <path class="st1" d="M1872.49,240.33c-.06,0-.12,0-.19.03-.27.08-.41.33-.3.55.22.47,10.64,23.04,10.64,23.04l.98-.31s-10.42-22.57-10.64-23.04c-.08-.17-.28-.28-.49-.28Z"/>
                <path class="st1" d="M1891.65,247.51s-27.48,8.56-28.06,8.74c-.27.08-.41.33-.3.55.1.22.41.33.68.25.58-.18,28.06-8.74,28.06-8.74l-.37-.8Z"/>
              </g>
            </g>
            <path class="st14" d="M1885.2,250.13c-1.4-3.24-5.74-4.94-9.69-3.79-3.95,1.15-6.01,4.72-4.61,7.96,1.4,3.24,5.74,4.94,9.69,3.79,3.95-1.15,6.01-4.72,4.61-7.96Z"/>
            <path class="st0" d="M1882.07,251.04c-.79-1.83-3.23-2.78-5.46-2.13-2.22.65-3.39,2.66-2.6,4.48.79,1.83,3.23,2.78,5.46,2.13,2.22-.65,3.39-2.66,2.6-4.48Z"/>
            <path class="st1" d="M1873.57,264.43c0-1.03-1.02-1.86-2.27-1.86s-2.27.83-2.27,1.86c0,1.03,1.02,1.86,2.27,1.86s2.27-.83,2.27-1.86Z"/>
            <path class="st1" d="M1885.79,264.72c0-1.03-1.02-1.86-2.27-1.86s-2.27.83-2.27,1.86c0,1.03,1.02,1.86,2.27,1.86s2.27-.83,2.27-1.86Z"/>
            <path class="st1" d="M1893.99,257.55c0-1.03-1.02-1.86-2.27-1.86s-2.27.83-2.27,1.86,1.02,1.86,2.27,1.86,2.27-.83,2.27-1.86Z"/>
            <path class="st1" d="M1894.86,247.95c0-1.03-1.02-1.86-2.27-1.86s-2.27.83-2.27,1.86,1.02,1.86,2.27,1.86,2.27-.83,2.27-1.86Z"/>
            <path class="st1" d="M1886.49,240.78c0-1.03-1.02-1.86-2.27-1.86s-2.27.83-2.27,1.86c0,1.03,1.02,1.86,2.27,1.86s2.27-.83,2.27-1.86Z"/>
            <path class="st1" d="M1874.97,240.78c0-1.03-1.02-1.86-2.27-1.86s-2.27.83-2.27,1.86c0,1.03,1.02,1.86,2.27,1.86s2.27-.83,2.27-1.86Z"/>
            <path class="st1" d="M1866.24,246.94c0-1.03-1.02-1.86-2.27-1.86s-2.27.83-2.27,1.86c0,1.03,1.02,1.86,2.27,1.86s2.27-.83,2.27-1.86Z"/>
            <path class="st1" d="M1865.2,256.69c0-1.03-1.02-1.86-2.27-1.86s-2.27.83-2.27,1.86c0,1.03,1.02,1.86,2.27,1.86s2.27-.83,2.27-1.86Z"/>
          </g>
        </g>
      </g>
      <g>
        <rect class="st5" x="1438.18" y=".57" width="88.45" height="72.74"/>
        <rect class="st10" x="1438.18" y="36.12" width="88.45" height="37.19"/>
        <g>
          <path class="st7" d="M1443.21,62.24s16.61,2.01,17.8-12.16c0,0-16.4-3-17.8,12.16Z"/>
          <path class="st7" d="M1477.85,62.24s-16.61,2.01-17.8-12.16c0,0,16.4-3,17.8,12.16Z"/>
          <rect class="st7" x="1459.51" y="36.22" width="1.53" height="16.61"/>
        </g>
        <g>
          <path class="st1" d="M1449.3,45.25c-6.1,0-11.04-4.06-11.04-9.08h22.08c0,5.01-4.94,9.08-11.04,9.08Z"/>
          <path class="st0" d="M1471.81,44.99c-5.93,0-10.73-3.95-10.73-8.82h21.46c0,4.87-4.8,8.82-10.73,8.82Z"/>
          <path class="st14" d="M1493.56,44.99c-5.93,0-10.73-3.95-10.73-8.82h21.46c0,4.87-4.8,8.82-10.73,8.82Z"/>
          <path class="st1" d="M1515.85,44.99c-5.93,0-10.73-3.95-10.73-8.82h21.46c0,4.87-4.8,8.82-10.73,8.82Z"/>
          <path class="st0" d="M1449.21,26.73c-5.88,0-10.65-3.92-10.65-8.76h21.31c0,4.84-4.77,8.76-10.65,8.76Z"/>
          <path class="st14" d="M1471.34,26.73c-5.88,0-10.65-3.92-10.65-8.76h21.31c0,4.84-4.77,8.76-10.65,8.76Z"/>
          <path class="st1" d="M1493.47,26.73c-5.88,0-10.65-3.92-10.65-8.76h21.31c0,4.84-4.77,8.76-10.66,8.76Z"/>
          <path class="st14" d="M1515.6,26.73c-5.88,0-10.65-3.92-10.65-8.76h21.31c0,4.84-4.77,8.76-10.65,8.76Z"/>
        </g>
        <g>
          <path class="st10" d="M1488.44,30.15s16.61,2.01,17.8-12.16c0,0-16.4-3-17.8,12.16Z"/>
          <path class="st10" d="M1523.07,30.15s-16.61,2.01-17.8-12.16c0,0,16.4-3,17.8,12.16Z"/>
          <rect class="st10" x="1504.98" y=".44" width="1.64" height="20.3"/>
        </g>
        <g>
          <path class="st14" d="M1449.09,8.86c-5.95,0-10.78-3.97-10.78-8.86h21.55c0,4.89-4.82,8.86-10.78,8.86Z"/>
          <path class="st1" d="M1471.47,8.86c-5.95,0-10.78-3.97-10.78-8.86h21.55c0,4.89-4.82,8.86-10.78,8.86Z"/>
          <path class="st14" d="M1493.85,8.86c-5.95,0-10.78-3.97-10.78-8.86h21.55c0,4.89-4.82,8.86-10.78,8.86Z"/>
          <path class="st0" d="M1516.23,8.86c-5.95,0-10.78-3.97-10.78-8.86h21.55c0,4.89-4.82,8.86-10.78,8.86Z"/>
        </g>
        <g>
          <rect class="st5" x="1438.18" y="73.06" width="88.45" height="72.74"/>
          <rect class="st1" x="1438.22" y="135.44" width="88.37" height="4.85"/>
          <rect class="st14" x="1438.22" y="123.68" width="88.37" height="4.85"/>
          <path class="st0" d="M1526.63,117.79v-44.73s-81.74,0-81.74,0c-.18.64-.27,1.31-.27,1.99,0,4.33,4.72,9.21,10.22,9.21.02,0,29.58,0,29.58,0,2.67,0,5.1.9,6.86,2.35,1.78,1.47,2.88,3.5,2.86,5.73-.06,4.42-4.63,7.91-10,7.91-5.7,0-11.39.03-17.09,0-6.97-.04-13.83,2.27-13.29,9.1.38,4.8,5.43,8.45,11.27,8.45h61.62Z"/>
          <path class="st7" d="M1522.65,97.25c0,2.17-2.14,3.93-4.78,3.93s-4.78-1.76-4.78-3.93c0-2.17,2.14-3.93,4.78-3.93s4.78,1.76,4.78,3.93ZM1520.95,97.25c0-1.4-1.38-2.53-3.08-2.53s-3.08,1.14-3.08,2.53,1.38,2.53,3.08,2.53,3.08-1.14,3.08-2.53Z"/>
          <path class="st7" d="M1522.09,83.4c0,2.17-2.14,3.93-4.78,3.93-2.63,0-4.78-1.76-4.78-3.93s2.14-3.93,4.78-3.93,4.78,1.76,4.78,3.93ZM1520.39,83.4c0-1.4-1.38-2.53-3.08-2.53s-3.08,1.14-3.08,2.53c0,1.4,1.38,2.53,3.08,2.53s3.08-1.14,3.08-2.53Z"/>
        </g>
      </g>
      <g>
        <rect class="st1" x="1657.45" y="217.43" width="87.1" height="71.63"/>
        <rect class="st14" x="1657.49" y="278.86" width="87.02" height="4.77"/>
        <rect class="st5" x="1657.49" y="267.27" width="87.02" height="4.77"/>
        <path class="st0" d="M1744.55,261.48v-44.05s-80.49,0-80.49,0c-.18.63-.27,1.29-.27,1.96,0,4.26,4.65,9.07,10.06,9.07.02,0,29.12,0,29.12,0,2.62,0,5.02.89,6.75,2.31,1.76,1.45,2.84,3.44,2.81,5.64-.06,4.35-4.56,7.79-9.85,7.79-5.61,0-11.22.03-16.82,0-6.87-.04-13.62,2.23-13.08,8.96.37,4.73,5.34,8.32,11.1,8.32h60.68Z"/>
        <path class="st10" d="M1740.63,241.25c0,2.13-2.11,3.87-4.71,3.87s-4.71-1.74-4.71-3.87,2.11-3.87,4.71-3.87,4.71,1.74,4.71,3.87ZM1738.96,241.25c0-1.37-1.36-2.49-3.03-2.49s-3.03,1.12-3.03,2.49,1.36,2.49,3.03,2.49,3.03-1.12,3.03-2.49Z"/>
        <path class="st7" d="M1740.08,227.61c0,2.13-2.11,3.87-4.71,3.87s-4.71-1.74-4.71-3.87,2.11-3.87,4.71-3.87,4.71,1.74,4.71,3.87ZM1738.4,227.61c0-1.37-1.36-2.49-3.03-2.49-1.67,0-3.03,1.12-3.03,2.49s1.36,2.49,3.03,2.49,3.03-1.12,3.03-2.49Z"/>
      </g>
    </g>
  </g>
</svg>