<?xml version="1.0" encoding="UTF-8"?>
<svg id="Layer_1" xmlns="http://www.w3.org/2000/svg" version="1.1" xmlns:xlink="http://www.w3.org/1999/xlink" viewBox="0 0 1920 1080">
  <!-- Generator: Adobe Illustrator 29.8.2, SVG Export Plug-In . SVG Version: 2.1.1 Build 3)  -->
  <defs>
    <style>
      .st0 {
        fill: #00bcaa;
      }

      .st1 {
        fill: #00507e;
      }

      .st2 {
        fill: #00d9d9;
      }

      .st3 {
        fill: #fff9e9;
      }

      .st4 {
        fill: #fff;
      }

      .st5 {
        fill: none;
      }

      .st6 {
        fill: #fff9f4;
      }

      .st7 {
        fill: #ffd348;
      }

      .st8 {
        fill: #ff275a;
      }

      .st9 {
        clip-path: url(#clippath);
      }
    </style>
    <clipPath id="clippath">
      <rect class="st5" x="-.11" width="1920.23" height="66.72"/>
    </clipPath>
  </defs>
  <g class="st9">
    <g>
      <g>
        <rect class="st7" x="666.48" y="-49.44" width="117.26" height="116.06"/>
        <rect class="st4" x="552.41" y="-49.44" width="114.06" height="116.06" transform="translate(1218.89 17.18) rotate(180)"/>
        <rect class="st1" x="438.35" y="-49.44" width="114.06" height="116.06"/>
        <rect class="st8" x="666.48" y="-163.9" width="117.26" height="114.46"/>
        <rect class="st0" x="552.41" y="-163.9" width="114.06" height="114.46"/>
        <rect class="st4" x="438.35" y="-163.9" width="114.06" height="114.46" transform="translate(990.76 -213.34) rotate(180)"/>
        <g>
          <path class="st1" d="M683.94,7.79l40.36,40.5,40.36-40.5-40.36-40.5-40.36,40.5ZM724.31,39.19l-31.29-31.4,31.29-31.4,31.29,31.4-31.29,31.4Z"/>
          <polygon class="st4" points="706.7 7.79 724.31 -9.88 741.91 7.79 724.31 25.45 706.7 7.79"/>
          <path class="st2" d="M667.84,7.77l56.45,58.31,58.11-58.31-58.11-56.64-56.45,56.65ZM724.32,61.5l-51.98-53.7,51.98-52.16,53.51,52.16-53.51,53.69Z"/>
          <path class="st8" d="M667.84,7.77l56.45,58.31,58.11-58.31-58.11-56.64-56.45,56.65ZM724.32,61.5l-51.98-53.7,51.98-52.16,53.51,52.16-53.51,53.69Z"/>
        </g>
        <g>
          <g>
            <path class="st8" d="M641.33-27.1c7.45,0,13.49-6.06,13.49-13.54h-26.98c0,7.48,6.04,13.54,13.49,13.54Z"/>
            <path class="st7" d="M641.33-5.72c7.45,0,13.49-6.06,13.49-13.54h-26.98c0,7.48,6.04,13.54,13.49,13.54Z"/>
            <path class="st0" d="M641.33,15.66c7.45,0,13.49-6.06,13.49-13.54h-26.98c0,7.48,6.04,13.54,13.49,13.54Z"/>
            <path class="st1" d="M641.33,37.03c7.45,0,13.49-6.06,13.49-13.54h-26.98c0,7.48,6.04,13.54,13.49,13.54Z"/>
            <path class="st8" d="M641.33,58.41c7.45,0,13.49-6.06,13.49-13.54h-26.98c0,7.48,6.04,13.54,13.49,13.54Z"/>
          </g>
          <g>
            <path class="st7" d="M609.44-27.1c7.45,0,13.49-6.06,13.49-13.54h-26.98c0,7.48,6.04,13.54,13.49,13.54Z"/>
            <path class="st0" d="M609.44-5.72c7.45,0,13.49-6.06,13.49-13.54h-26.98c0,7.48,6.04,13.54,13.49,13.54Z"/>
            <path class="st1" d="M609.44,15.66c7.45,0,13.49-6.06,13.49-13.54h-26.98c0,7.48,6.04,13.54,13.49,13.54Z"/>
            <path class="st8" d="M609.44,37.03c7.45,0,13.49-6.06,13.49-13.54h-26.98c0,7.48,6.04,13.54,13.49,13.54Z"/>
            <path class="st7" d="M609.44,58.41c7.45,0,13.49-6.06,13.49-13.54h-26.98c0,7.48,6.04,13.54,13.49,13.54Z"/>
          </g>
          <g>
            <path class="st0" d="M577.55-27.1c7.45,0,13.49-6.06,13.49-13.54h-26.98c0,7.48,6.04,13.54,13.49,13.54Z"/>
            <path class="st1" d="M577.55-5.72c7.45,0,13.49-6.06,13.49-13.54h-26.98c0,7.48,6.04,13.54,13.49,13.54Z"/>
            <path class="st8" d="M577.55,15.66c7.45,0,13.49-6.06,13.49-13.54h-26.98c0,7.48,6.04,13.54,13.49,13.54Z"/>
            <path class="st7" d="M577.55,37.03c7.45,0,13.49-6.06,13.49-13.54h-26.98c0,7.48,6.04,13.54,13.49,13.54Z"/>
            <path class="st0" d="M577.55,58.41c7.45,0,13.49-6.06,13.49-13.54h-26.98c0,7.48,6.04,13.54,13.49,13.54Z"/>
          </g>
        </g>
        <g>
          <g>
            <path class="st4" d="M495.38,57.99v8.63h6.93c11.87,0,21.58-9.71,21.58-21.58h0c0,11.87,9.71,21.58,21.58,21.58h6.93v-8.63c0-11.87-9.71-21.58-21.58-21.58,11.92,0,21.58-9.66,21.58-21.58v-7.03h-6.93c-11.92,0-21.58,9.66-21.58,21.58h0c0-11.92-9.66-21.58-21.58-21.58h-6.93v7.03c0,11.92,9.66,21.58,21.58,21.58h0c-11.92,0-21.58,9.66-21.58,21.58Z"/>
            <path class="st4" d="M438.35,57.99v8.63h6.93c11.92,0,21.58-9.66,21.58-21.58,0,11.92,9.66,21.58,21.58,21.58h6.93v-8.63c0-11.92-9.66-21.58-21.58-21.58,11.92,0,21.58-9.66,21.58-21.58v-7.03h-6.93c-11.92,0-21.58,9.66-21.58,21.58h0c0-11.92-9.66-21.58-21.58-21.58h-6.93v7.03c0,11.92,9.66,21.58,21.58,21.58-11.92,0-21.58,9.66-21.58,21.58Z"/>
          </g>
          <g>
            <path class="st4" d="M495.38.76v7.03h6.93c11.92,0,21.58-9.66,21.58-21.58h0c0,11.92,9.66,21.58,21.58,21.58h6.93V.76c0-11.92-9.66-21.58-21.58-21.58,11.92,0,21.58-9.66,21.58-21.58v-7.03h-6.93c-11.92,0-21.58,9.66-21.58,21.58h0c0-11.92-9.66-21.58-21.58-21.58h-6.93v7.03c0,11.92,9.66,21.58,21.58,21.58h0c-11.92,0-21.58,9.66-21.58,21.58Z"/>
            <path class="st4" d="M438.35.76v7.03h6.93c11.92,0,21.58-9.66,21.58-21.58,0,11.92,9.66,21.58,21.58,21.58h6.93V.76c0-11.92-9.66-21.58-21.58-21.58,11.92,0,21.58-9.66,21.58-21.58v-7.03h-6.93c-11.92,0-21.58,9.66-21.58,21.58h0c0-11.92-9.66-21.58-21.58-21.58h-6.93v7.03c0,11.92,9.66,21.58,21.58,21.58-11.92,0-21.58,9.66-21.58,21.58Z"/>
          </g>
        </g>
        <g>
          <path class="st1" d="M780.94-163.9h2.8s0,0,0,0c0,63.21-51.25,114.46-114.46,114.46h-2.8c0-63.21,51.25-114.46,114.46-114.46Z"/>
          <g>
            <ellipse class="st4" cx="724.31" cy="-106.67" rx="21.83" ry="21.91"/>
            <path class="st0" d="M692.91-106.67c0,17.37,14.08,31.5,31.4,31.5,17.31,0,31.4-14.13,31.4-31.5,0-17.37-14.08-31.5-31.4-31.5s-31.4,14.13-31.4,31.5ZM697.73-106.67c0-14.71,11.92-26.68,26.58-26.68,14.66,0,26.58,11.97,26.58,26.68,0,14.71-11.92,26.68-26.58,26.68-14.65,0-26.58-11.97-26.58-26.68Z"/>
            <path class="st8" d="M711.01-106.67c0-7.37,5.95-13.34,13.29-13.34s13.29,5.97,13.29,13.34c0,7.37-5.95,13.34-13.29,13.34-7.34,0-13.29-5.97-13.29-13.34Z"/>
          </g>
        </g>
        <g>
          <g>
            <path class="st4" d="M658.64-56.46c0-1.01.82-1.83,1.83-1.83s1.83.82,1.83,1.83c0,1.01-.82,1.83-1.83,1.83-1.01,0-1.83-.82-1.83-1.83Z"/>
            <g>
              <path class="st4" d="M647.3-56.46c0-1.01.82-1.83,1.83-1.83s1.83.82,1.83,1.83c0,1.01-.82,1.83-1.83,1.83s-1.83-.82-1.83-1.83Z"/>
              <path class="st4" d="M635.97-56.46c0-1.01.82-1.83,1.83-1.83,1.01,0,1.83.82,1.83,1.83,0,1.01-.82,1.83-1.83,1.83s-1.83-.82-1.83-1.83Z"/>
              <path class="st4" d="M624.63-56.46c0-1.01.82-1.83,1.83-1.83,1.01,0,1.83.82,1.83,1.83,0,1.01-.82,1.83-1.83,1.83s-1.83-.82-1.83-1.83Z"/>
              <path class="st4" d="M613.29-56.46c0-1.01.82-1.83,1.83-1.83s1.83.82,1.83,1.83c0,1.01-.82,1.83-1.83,1.83s-1.83-.82-1.83-1.83Z"/>
              <path class="st4" d="M601.95-56.46c0-1.01.82-1.83,1.83-1.83,1.01,0,1.83.82,1.83,1.83s-.82,1.83-1.83,1.83-1.83-.82-1.83-1.83Z"/>
              <path class="st4" d="M590.61-56.46c0-1.01.82-1.83,1.83-1.83s1.83.82,1.83,1.83c0,1.01-.82,1.83-1.83,1.83s-1.83-.82-1.83-1.83Z"/>
              <path class="st4" d="M579.27-56.46c0-1.01.82-1.83,1.83-1.83s1.83.82,1.83,1.83c0,1.01-.82,1.83-1.83,1.83s-1.83-.82-1.83-1.83Z"/>
              <path class="st4" d="M567.93-56.46c0-1.01.82-1.83,1.83-1.83,1.01,0,1.83.82,1.83,1.83s-.82,1.83-1.83,1.83-1.83-.82-1.83-1.83Z"/>
              <path class="st4" d="M556.59-56.46c0-1.01.82-1.83,1.83-1.83s1.83.82,1.83,1.83c0,1.01-.82,1.83-1.83,1.83-1.01,0-1.83-.82-1.83-1.83Z"/>
            </g>
            <g>
              <path class="st4" d="M651.32-63.57c0-1.01.82-1.83,1.83-1.83s1.83.82,1.83,1.83-.82,1.83-1.83,1.83c-1.01,0-1.83-.82-1.83-1.83Z"/>
              <path class="st4" d="M639.98-63.57c0-1.01.82-1.83,1.83-1.83,1.01,0,1.83.82,1.83,1.83s-.82,1.83-1.83,1.83c-1.01,0-1.83-.82-1.83-1.83Z"/>
              <path class="st4" d="M628.64-63.57c0-1.01.82-1.83,1.83-1.83s1.83.82,1.83,1.83c0,1.01-.82,1.83-1.83,1.83s-1.83-.82-1.83-1.83Z"/>
              <path class="st4" d="M617.3-63.57c0-1.01.82-1.83,1.83-1.83s1.83.82,1.83,1.83c0,1.01-.82,1.83-1.83,1.83-1.01,0-1.83-.82-1.83-1.83Z"/>
              <path class="st4" d="M605.96-63.57c0-1.01.82-1.83,1.83-1.83s1.83.82,1.83,1.83c0,1.01-.82,1.83-1.83,1.83-1.01,0-1.83-.82-1.83-1.83Z"/>
              <path class="st4" d="M594.62-63.57c0-1.01.82-1.83,1.83-1.83,1.01,0,1.83.82,1.83,1.83s-.82,1.83-1.83,1.83c-1.01,0-1.83-.82-1.83-1.83Z"/>
              <path class="st4" d="M583.28-63.57c0-1.01.82-1.83,1.83-1.83,1.01,0,1.83.82,1.83,1.83,0,1.01-.82,1.83-1.83,1.83-1.01,0-1.83-.82-1.83-1.83Z"/>
              <path class="st4" d="M571.94-63.57c0-1.01.82-1.83,1.83-1.83s1.83.82,1.83,1.83c0,1.01-.82,1.83-1.83,1.83s-1.83-.82-1.83-1.83Z"/>
              <path class="st4" d="M560.6-63.57c0-1.01.82-1.83,1.83-1.83,1.01,0,1.83.82,1.83,1.83s-.82,1.83-1.83,1.83c-1.01,0-1.83-.82-1.83-1.83Z"/>
            </g>
          </g>
          <g>
            <path class="st4" d="M658.64-69.79c0-1.01.82-1.83,1.83-1.83,1.01,0,1.83.82,1.83,1.83s-.82,1.83-1.83,1.83-1.83-.82-1.83-1.83Z"/>
            <g>
              <path class="st4" d="M647.3-69.79c0-1.01.82-1.83,1.83-1.83s1.83.82,1.83,1.83c0,1.01-.82,1.83-1.83,1.83s-1.83-.82-1.83-1.83Z"/>
              <path class="st4" d="M635.97-69.79c0-1.01.82-1.83,1.83-1.83s1.83.82,1.83,1.83-.82,1.83-1.83,1.83-1.83-.82-1.83-1.83Z"/>
              <path class="st4" d="M624.63-69.79c0-1.01.82-1.83,1.83-1.83,1.01,0,1.83.82,1.83,1.83s-.82,1.83-1.83,1.83-1.83-.82-1.83-1.83Z"/>
              <path class="st4" d="M613.29-69.79c0-1.01.82-1.83,1.83-1.83,1.01,0,1.83.82,1.83,1.83,0,1.01-.82,1.83-1.83,1.83s-1.83-.82-1.83-1.83Z"/>
              <path class="st4" d="M601.95-69.79c0-1.01.82-1.83,1.83-1.83,1.01,0,1.83.82,1.83,1.83,0,1.01-.82,1.83-1.83,1.83-1.01,0-1.83-.82-1.83-1.83Z"/>
              <path class="st4" d="M590.61-69.79c0-1.01.82-1.83,1.83-1.83s1.83.82,1.83,1.83c0,1.01-.82,1.83-1.83,1.83-1.01,0-1.83-.82-1.83-1.83Z"/>
              <path class="st4" d="M579.27-69.79c0-1.01.82-1.83,1.83-1.83s1.83.82,1.83,1.83c0,1.01-.82,1.83-1.83,1.83s-1.83-.82-1.83-1.83Z"/>
              <path class="st4" d="M567.93-69.79c0-1.01.82-1.83,1.83-1.83,1.01,0,1.83.82,1.83,1.83,0,1.01-.82,1.83-1.83,1.83s-1.83-.82-1.83-1.83Z"/>
              <path class="st4" d="M556.59-69.79c0-1.01.82-1.83,1.83-1.83s1.83.82,1.83,1.83c0,1.01-.82,1.83-1.83,1.83s-1.83-.82-1.83-1.83Z"/>
            </g>
            <g>
              <path class="st4" d="M651.32-76.9c0-1.01.82-1.83,1.83-1.83s1.83.82,1.83,1.83c0,1.01-.82,1.83-1.83,1.83-1.01,0-1.83-.82-1.83-1.83Z"/>
              <path class="st4" d="M639.98-76.9c0-1.01.82-1.83,1.83-1.83,1.01,0,1.83.82,1.83,1.83s-.82,1.83-1.83,1.83-1.83-.82-1.83-1.83Z"/>
              <path class="st4" d="M628.64-76.9c0-1.01.82-1.83,1.83-1.83s1.83.82,1.83,1.83-.82,1.83-1.83,1.83-1.83-.82-1.83-1.83Z"/>
              <path class="st4" d="M617.3-76.9c0-1.01.82-1.83,1.83-1.83s1.83.82,1.83,1.83c0,1.01-.82,1.83-1.83,1.83s-1.83-.82-1.83-1.83Z"/>
              <path class="st4" d="M605.96-76.9c0-1.01.82-1.83,1.83-1.83s1.83.82,1.83,1.83-.82,1.83-1.83,1.83-1.83-.82-1.83-1.83Z"/>
              <path class="st4" d="M594.62-76.9c0-1.01.82-1.83,1.83-1.83s1.83.82,1.83,1.83-.82,1.83-1.83,1.83c-1.01,0-1.83-.82-1.83-1.83Z"/>
              <path class="st4" d="M583.28-76.9c0-1.01.82-1.83,1.83-1.83,1.01,0,1.83.82,1.83,1.83,0,1.01-.82,1.83-1.83,1.83s-1.83-.82-1.83-1.83Z"/>
              <path class="st4" d="M571.94-76.9c0-1.01.82-1.83,1.83-1.83s1.83.82,1.83,1.83-.82,1.83-1.83,1.83c-1.01,0-1.83-.82-1.83-1.83Z"/>
              <path class="st4" d="M560.6-76.9c0-1.01.82-1.83,1.83-1.83s1.83.82,1.83,1.83c0,1.01-.82,1.83-1.83,1.83-1.01,0-1.83-.82-1.83-1.83Z"/>
            </g>
          </g>
          <g>
            <path class="st4" d="M658.64-83.12c0-1.01.82-1.83,1.83-1.83,1.01,0,1.83.82,1.83,1.83,0,1.01-.82,1.83-1.83,1.83s-1.83-.82-1.83-1.83Z"/>
            <g>
              <path class="st4" d="M647.3-83.12c0-1.01.82-1.83,1.83-1.83s1.83.82,1.83,1.83c0,1.01-.82,1.83-1.83,1.83-1.01,0-1.83-.82-1.83-1.83Z"/>
              <path class="st4" d="M635.97-83.12c0-1.01.82-1.83,1.83-1.83,1.01,0,1.83.82,1.83,1.83,0,1.01-.82,1.83-1.83,1.83s-1.83-.82-1.83-1.83Z"/>
              <path class="st4" d="M624.63-83.12c0-1.01.82-1.83,1.83-1.83s1.83.82,1.83,1.83c0,1.01-.82,1.83-1.83,1.83s-1.83-.82-1.83-1.83Z"/>
              <path class="st4" d="M613.29-83.12c0-1.01.82-1.83,1.83-1.83,1.01,0,1.83.82,1.83,1.83,0,1.01-.82,1.83-1.83,1.83s-1.83-.82-1.83-1.83Z"/>
              <path class="st4" d="M601.95-83.12c0-1.01.82-1.83,1.83-1.83s1.83.82,1.83,1.83-.82,1.83-1.83,1.83-1.83-.82-1.83-1.83Z"/>
              <path class="st4" d="M590.61-83.12c0-1.01.82-1.83,1.83-1.83s1.83.82,1.83,1.83c0,1.01-.82,1.83-1.83,1.83s-1.83-.82-1.83-1.83Z"/>
              <path class="st4" d="M579.27-83.12c0-1.01.82-1.83,1.83-1.83s1.83.82,1.83,1.83-.82,1.83-1.83,1.83c-1.01,0-1.83-.82-1.83-1.83Z"/>
              <path class="st4" d="M567.93-83.12c0-1.01.82-1.83,1.83-1.83s1.83.82,1.83,1.83-.82,1.83-1.83,1.83-1.83-.82-1.83-1.83Z"/>
              <path class="st4" d="M556.59-83.12c0-1.01.82-1.83,1.83-1.83,1.01,0,1.83.82,1.83,1.83s-.82,1.83-1.83,1.83-1.83-.82-1.83-1.83Z"/>
            </g>
            <g>
              <path class="st4" d="M651.32-90.23c0-1.01.82-1.83,1.83-1.83s1.83.82,1.83,1.83c0,1.01-.82,1.83-1.83,1.83s-1.83-.82-1.83-1.83Z"/>
              <path class="st4" d="M639.98-90.23c0-1.01.82-1.83,1.83-1.83s1.83.82,1.83,1.83c0,1.01-.82,1.83-1.83,1.83-1.01,0-1.83-.82-1.83-1.83Z"/>
              <path class="st4" d="M628.64-90.23c0-1.01.82-1.83,1.83-1.83,1.01,0,1.83.82,1.83,1.83,0,1.01-.82,1.83-1.83,1.83s-1.83-.82-1.83-1.83Z"/>
              <path class="st4" d="M617.3-90.23c0-1.01.82-1.83,1.83-1.83,1.01,0,1.83.82,1.83,1.83s-.82,1.83-1.83,1.83-1.83-.82-1.83-1.83Z"/>
              <path class="st4" d="M605.96-90.23c0-1.01.82-1.83,1.83-1.83,1.01,0,1.83.82,1.83,1.83,0,1.01-.82,1.83-1.83,1.83-1.01,0-1.83-.82-1.83-1.83Z"/>
              <path class="st4" d="M594.62-90.23c0-1.01.82-1.83,1.83-1.83,1.01,0,1.83.82,1.83,1.83,0,1.01-.82,1.83-1.83,1.83s-1.83-.82-1.83-1.83Z"/>
              <path class="st4" d="M583.28-90.23c0-1.01.82-1.83,1.83-1.83s1.83.82,1.83,1.83c0,1.01-.82,1.83-1.83,1.83s-1.83-.82-1.83-1.83Z"/>
              <path class="st4" d="M571.94-90.23c0-1.01.82-1.83,1.83-1.83s1.83.82,1.83,1.83c0,1.01-.82,1.83-1.83,1.83-1.01,0-1.83-.82-1.83-1.83Z"/>
              <path class="st4" d="M560.6-90.23c0-1.01.82-1.83,1.83-1.83,1.01,0,1.83.82,1.83,1.83,0,1.01-.82,1.83-1.83,1.83-1.01,0-1.83-.82-1.83-1.83Z"/>
            </g>
          </g>
          <g>
            <path class="st4" d="M658.64-96.45c0-1.01.82-1.83,1.83-1.83s1.83.82,1.83,1.83c0,1.01-.82,1.83-1.83,1.83s-1.83-.82-1.83-1.83Z"/>
            <g>
              <path class="st4" d="M647.3-96.45c0-1.01.82-1.83,1.83-1.83,1.01,0,1.83.82,1.83,1.83,0,1.01-.82,1.83-1.83,1.83-1.01,0-1.83-.82-1.83-1.83Z"/>
              <path class="st4" d="M635.97-96.45c0-1.01.82-1.83,1.83-1.83s1.83.82,1.83,1.83c0,1.01-.82,1.83-1.83,1.83-1.01,0-1.83-.82-1.83-1.83Z"/>
              <path class="st4" d="M624.63-96.45c0-1.01.82-1.83,1.83-1.83s1.83.82,1.83,1.83-.82,1.83-1.83,1.83-1.83-.82-1.83-1.83Z"/>
              <path class="st4" d="M613.29-96.45c0-1.01.82-1.83,1.83-1.83s1.83.82,1.83,1.83-.82,1.83-1.83,1.83c-1.01,0-1.83-.82-1.83-1.83Z"/>
              <path class="st4" d="M601.95-96.45c0-1.01.82-1.83,1.83-1.83s1.83.82,1.83,1.83c0,1.01-.82,1.83-1.83,1.83s-1.83-.82-1.83-1.83Z"/>
              <path class="st4" d="M590.61-96.45c0-1.01.82-1.83,1.83-1.83,1.01,0,1.83.82,1.83,1.83,0,1.01-.82,1.83-1.83,1.83s-1.83-.82-1.83-1.83Z"/>
              <path class="st4" d="M579.27-96.45c0-1.01.82-1.83,1.83-1.83s1.83.82,1.83,1.83-.82,1.83-1.83,1.83-1.83-.82-1.83-1.83Z"/>
              <path class="st4" d="M567.93-96.45c0-1.01.82-1.83,1.83-1.83,1.01,0,1.83.82,1.83,1.83,0,1.01-.82,1.83-1.83,1.83s-1.83-.82-1.83-1.83Z"/>
              <path class="st4" d="M556.59-96.45c0-1.01.82-1.83,1.83-1.83s1.83.82,1.83,1.83c0,1.01-.82,1.83-1.83,1.83s-1.83-.82-1.83-1.83Z"/>
            </g>
            <g>
              <path class="st4" d="M651.32-103.56c0-1.01.82-1.83,1.83-1.83s1.83.82,1.83,1.83c0,1.01-.82,1.83-1.83,1.83s-1.83-.82-1.83-1.83Z"/>
              <path class="st4" d="M639.98-103.56c0-1.01.82-1.83,1.83-1.83,1.01,0,1.83.82,1.83,1.83,0,1.01-.82,1.83-1.83,1.83s-1.83-.82-1.83-1.83Z"/>
              <path class="st4" d="M628.64-103.56c0-1.01.82-1.83,1.83-1.83,1.01,0,1.83.82,1.83,1.83,0,1.01-.82,1.83-1.83,1.83s-1.83-.82-1.83-1.83Z"/>
              <path class="st4" d="M617.3-103.56c0-1.01.82-1.83,1.83-1.83,1.01,0,1.83.82,1.83,1.83s-.82,1.83-1.83,1.83c-1.01,0-1.83-.82-1.83-1.83Z"/>
              <path class="st4" d="M605.96-103.56c0-1.01.82-1.83,1.83-1.83s1.83.82,1.83,1.83c0,1.01-.82,1.83-1.83,1.83-1.01,0-1.83-.82-1.83-1.83Z"/>
              <path class="st4" d="M594.62-103.56c0-1.01.82-1.83,1.83-1.83s1.83.82,1.83,1.83-.82,1.83-1.83,1.83c-1.01,0-1.83-.82-1.83-1.83Z"/>
              <path class="st4" d="M583.28-103.56c0-1.01.82-1.83,1.83-1.83s1.83.82,1.83,1.83-.82,1.83-1.83,1.83c-1.01,0-1.83-.82-1.83-1.83Z"/>
              <path class="st4" d="M571.94-103.56c0-1.01.82-1.83,1.83-1.83s1.83.82,1.83,1.83c0,1.01-.82,1.83-1.83,1.83-1.01,0-1.83-.82-1.83-1.83Z"/>
              <path class="st4" d="M560.6-103.56c0-1.01.82-1.83,1.83-1.83s1.83.82,1.83,1.83-.82,1.83-1.83,1.83c-1.01,0-1.83-.82-1.83-1.83Z"/>
            </g>
          </g>
          <g>
            <path class="st4" d="M658.64-109.79c0-1.01.82-1.83,1.83-1.83s1.83.82,1.83,1.83-.82,1.83-1.83,1.83-1.83-.82-1.83-1.83Z"/>
            <g>
              <path class="st4" d="M647.3-109.79c0-1.01.82-1.83,1.83-1.83,1.01,0,1.83.82,1.83,1.83,0,1.01-.82,1.83-1.83,1.83-1.01,0-1.83-.82-1.83-1.83Z"/>
              <path class="st4" d="M635.97-109.79c0-1.01.82-1.83,1.83-1.83,1.01,0,1.83.82,1.83,1.83s-.82,1.83-1.83,1.83-1.83-.82-1.83-1.83Z"/>
              <path class="st4" d="M624.63-109.79c0-1.01.82-1.83,1.83-1.83s1.83.82,1.83,1.83c0,1.01-.82,1.83-1.83,1.83s-1.83-.82-1.83-1.83Z"/>
              <path class="st4" d="M613.29-109.79c0-1.01.82-1.83,1.83-1.83,1.01,0,1.83.82,1.83,1.83s-.82,1.83-1.83,1.83c-1.01,0-1.83-.82-1.83-1.83Z"/>
              <path class="st4" d="M601.95-109.79c0-1.01.82-1.83,1.83-1.83s1.83.82,1.83,1.83c0,1.01-.82,1.83-1.83,1.83s-1.83-.82-1.83-1.83Z"/>
              <path class="st4" d="M590.61-109.79c0-1.01.82-1.83,1.83-1.83,1.01,0,1.83.82,1.83,1.83s-.82,1.83-1.83,1.83c-1.01,0-1.83-.82-1.83-1.83Z"/>
              <path class="st4" d="M579.27-109.79c0-1.01.82-1.83,1.83-1.83s1.83.82,1.83,1.83c0,1.01-.82,1.83-1.83,1.83-1.01,0-1.83-.82-1.83-1.83Z"/>
              <path class="st4" d="M567.93-109.79c0-1.01.82-1.83,1.83-1.83,1.01,0,1.83.82,1.83,1.83,0,1.01-.82,1.83-1.83,1.83s-1.83-.82-1.83-1.83Z"/>
              <path class="st4" d="M556.59-109.79c0-1.01.82-1.83,1.83-1.83,1.01,0,1.83.82,1.83,1.83,0,1.01-.82,1.83-1.83,1.83s-1.83-.82-1.83-1.83Z"/>
            </g>
            <g>
              <path class="st4" d="M651.32-116.89c0-1.01.82-1.83,1.83-1.83s1.83.82,1.83,1.83c0,1.01-.82,1.83-1.83,1.83s-1.83-.82-1.83-1.83Z"/>
              <path class="st4" d="M639.98-116.89c0-1.01.82-1.83,1.83-1.83,1.01,0,1.83.82,1.83,1.83,0,1.01-.82,1.83-1.83,1.83s-1.83-.82-1.83-1.83Z"/>
              <path class="st4" d="M628.64-116.89c0-1.01.82-1.83,1.83-1.83s1.83.82,1.83,1.83c0,1.01-.82,1.83-1.83,1.83-1.01,0-1.83-.82-1.83-1.83Z"/>
              <path class="st4" d="M617.3-116.89c0-1.01.82-1.83,1.83-1.83,1.01,0,1.83.82,1.83,1.83,0,1.01-.82,1.83-1.83,1.83s-1.83-.82-1.83-1.83Z"/>
              <path class="st4" d="M605.96-116.89c0-1.01.82-1.83,1.83-1.83s1.83.82,1.83,1.83c0,1.01-.82,1.83-1.83,1.83-1.01,0-1.83-.82-1.83-1.83Z"/>
              <path class="st4" d="M594.62-116.89c0-1.01.82-1.83,1.83-1.83s1.83.82,1.83,1.83-.82,1.83-1.83,1.83-1.83-.82-1.83-1.83Z"/>
              <path class="st4" d="M583.28-116.89c0-1.01.82-1.83,1.83-1.83s1.83.82,1.83,1.83-.82,1.83-1.83,1.83-1.83-.82-1.83-1.83Z"/>
              <path class="st4" d="M571.94-116.89c0-1.01.82-1.83,1.83-1.83,1.01,0,1.83.82,1.83,1.83s-.82,1.83-1.83,1.83c-1.01,0-1.83-.82-1.83-1.83Z"/>
              <path class="st4" d="M560.6-116.89c0-1.01.82-1.83,1.83-1.83s1.83.82,1.83,1.83c0,1.01-.82,1.83-1.83,1.83-1.01,0-1.83-.82-1.83-1.83Z"/>
            </g>
          </g>
          <g>
            <path class="st4" d="M658.64-123.12c0-1.01.82-1.83,1.83-1.83s1.83.82,1.83,1.83c0,1.01-.82,1.83-1.83,1.83-1.01,0-1.83-.82-1.83-1.83Z"/>
            <g>
              <path class="st4" d="M647.3-123.12c0-1.01.82-1.83,1.83-1.83s1.83.82,1.83,1.83-.82,1.83-1.83,1.83-1.83-.82-1.83-1.83Z"/>
              <path class="st4" d="M635.97-123.12c0-1.01.82-1.83,1.83-1.83,1.01,0,1.83.82,1.83,1.83,0,1.01-.82,1.83-1.83,1.83s-1.83-.82-1.83-1.83Z"/>
              <path class="st4" d="M624.63-123.12c0-1.01.82-1.83,1.83-1.83,1.01,0,1.83.82,1.83,1.83s-.82,1.83-1.83,1.83c-1.01,0-1.83-.82-1.83-1.83Z"/>
              <path class="st4" d="M613.29-123.12c0-1.01.82-1.83,1.83-1.83,1.01,0,1.83.82,1.83,1.83,0,1.01-.82,1.83-1.83,1.83s-1.83-.82-1.83-1.83Z"/>
              <path class="st4" d="M601.95-123.12c0-1.01.82-1.83,1.83-1.83,1.01,0,1.83.82,1.83,1.83s-.82,1.83-1.83,1.83c-1.01,0-1.83-.82-1.83-1.83Z"/>
              <path class="st4" d="M590.61-123.12c0-1.01.82-1.83,1.83-1.83s1.83.82,1.83,1.83c0,1.01-.82,1.83-1.83,1.83s-1.83-.82-1.83-1.83Z"/>
              <path class="st4" d="M579.27-123.12c0-1.01.82-1.83,1.83-1.83s1.83.82,1.83,1.83c0,1.01-.82,1.83-1.83,1.83s-1.83-.82-1.83-1.83Z"/>
              <path class="st4" d="M567.93-123.12c0-1.01.82-1.83,1.83-1.83s1.83.82,1.83,1.83-.82,1.83-1.83,1.83-1.83-.82-1.83-1.83Z"/>
              <path class="st4" d="M556.59-123.12c0-1.01.82-1.83,1.83-1.83,1.01,0,1.83.82,1.83,1.83,0,1.01-.82,1.83-1.83,1.83s-1.83-.82-1.83-1.83Z"/>
            </g>
            <g>
              <path class="st4" d="M651.32-130.22c0-1.01.82-1.83,1.83-1.83s1.83.82,1.83,1.83c0,1.01-.82,1.83-1.83,1.83s-1.83-.82-1.83-1.83Z"/>
              <path class="st4" d="M639.98-130.22c0-1.01.82-1.83,1.83-1.83s1.83.82,1.83,1.83-.82,1.83-1.83,1.83-1.83-.82-1.83-1.83Z"/>
              <path class="st4" d="M628.64-130.22c0-1.01.82-1.83,1.83-1.83s1.83.82,1.83,1.83-.82,1.83-1.83,1.83-1.83-.82-1.83-1.83Z"/>
              <path class="st4" d="M617.3-130.22c0-1.01.82-1.83,1.83-1.83s1.83.82,1.83,1.83c0,1.01-.82,1.83-1.83,1.83s-1.83-.82-1.83-1.83Z"/>
              <path class="st4" d="M605.96-130.22c0-1.01.82-1.83,1.83-1.83,1.01,0,1.83.82,1.83,1.83,0,1.01-.82,1.83-1.83,1.83s-1.83-.82-1.83-1.83Z"/>
              <path class="st4" d="M594.62-130.22c0-1.01.82-1.83,1.83-1.83s1.83.82,1.83,1.83-.82,1.83-1.83,1.83c-1.01,0-1.83-.82-1.83-1.83Z"/>
              <path class="st4" d="M583.28-130.22c0-1.01.82-1.83,1.83-1.83s1.83.82,1.83,1.83c0,1.01-.82,1.83-1.83,1.83s-1.83-.82-1.83-1.83Z"/>
              <path class="st4" d="M571.94-130.22c0-1.01.82-1.83,1.83-1.83,1.01,0,1.83.82,1.83,1.83s-.82,1.83-1.83,1.83-1.83-.82-1.83-1.83Z"/>
              <path class="st4" d="M560.6-130.22c0-1.01.82-1.83,1.83-1.83s1.83.82,1.83,1.83c0,1.01-.82,1.83-1.83,1.83-1.01,0-1.83-.82-1.83-1.83Z"/>
            </g>
          </g>
          <g>
            <path class="st4" d="M658.64-136.45c0-1.01.82-1.83,1.83-1.83s1.83.82,1.83,1.83c0,1.01-.82,1.83-1.83,1.83s-1.83-.82-1.83-1.83Z"/>
            <g>
              <path class="st4" d="M647.3-136.45c0-1.01.82-1.83,1.83-1.83,1.01,0,1.83.82,1.83,1.83s-.82,1.83-1.83,1.83-1.83-.82-1.83-1.83Z"/>
              <path class="st4" d="M635.97-136.45c0-1.01.82-1.83,1.83-1.83,1.01,0,1.83.82,1.83,1.83,0,1.01-.82,1.83-1.83,1.83s-1.83-.82-1.83-1.83Z"/>
              <path class="st4" d="M624.63-136.45c0-1.01.82-1.83,1.83-1.83s1.83.82,1.83,1.83-.82,1.83-1.83,1.83c-1.01,0-1.83-.82-1.83-1.83Z"/>
              <path class="st4" d="M613.29-136.45c0-1.01.82-1.83,1.83-1.83,1.01,0,1.83.82,1.83,1.83,0,1.01-.82,1.83-1.83,1.83-1.01,0-1.83-.82-1.83-1.83Z"/>
              <path class="st4" d="M601.95-136.45c0-1.01.82-1.83,1.83-1.83s1.83.82,1.83,1.83-.82,1.83-1.83,1.83-1.83-.82-1.83-1.83Z"/>
              <path class="st4" d="M590.61-136.45c0-1.01.82-1.83,1.83-1.83s1.83.82,1.83,1.83c0,1.01-.82,1.83-1.83,1.83-1.01,0-1.83-.82-1.83-1.83Z"/>
              <path class="st4" d="M579.27-136.45c0-1.01.82-1.83,1.83-1.83s1.83.82,1.83,1.83c0,1.01-.82,1.83-1.83,1.83s-1.83-.82-1.83-1.83Z"/>
              <path class="st4" d="M567.93-136.45c0-1.01.82-1.83,1.83-1.83,1.01,0,1.83.82,1.83,1.83,0,1.01-.82,1.83-1.83,1.83-1.01,0-1.83-.82-1.83-1.83Z"/>
              <path class="st4" d="M556.59-136.45c0-1.01.82-1.83,1.83-1.83s1.83.82,1.83,1.83-.82,1.83-1.83,1.83c-1.01,0-1.83-.82-1.83-1.83Z"/>
            </g>
            <g>
              <path class="st4" d="M651.32-143.55c0-1.01.82-1.83,1.83-1.83,1.01,0,1.83.82,1.83,1.83s-.82,1.83-1.83,1.83-1.83-.82-1.83-1.83Z"/>
              <path class="st4" d="M639.98-143.55c0-1.01.82-1.83,1.83-1.83,1.01,0,1.83.82,1.83,1.83,0,1.01-.82,1.83-1.83,1.83s-1.83-.82-1.83-1.83Z"/>
              <path class="st4" d="M628.64-143.55c0-1.01.82-1.83,1.83-1.83s1.83.82,1.83,1.83-.82,1.83-1.83,1.83-1.83-.82-1.83-1.83Z"/>
              <path class="st4" d="M617.3-143.55c0-1.01.82-1.83,1.83-1.83s1.83.82,1.83,1.83-.82,1.83-1.83,1.83c-1.01,0-1.83-.82-1.83-1.83Z"/>
              <path class="st4" d="M605.96-143.55c0-1.01.82-1.83,1.83-1.83s1.83.82,1.83,1.83-.82,1.83-1.83,1.83c-1.01,0-1.83-.82-1.83-1.83Z"/>
              <path class="st4" d="M594.62-143.55c0-1.01.82-1.83,1.83-1.83s1.83.82,1.83,1.83c0,1.01-.82,1.83-1.83,1.83s-1.83-.82-1.83-1.83Z"/>
              <path class="st4" d="M583.28-143.55c0-1.01.82-1.83,1.83-1.83,1.01,0,1.83.82,1.83,1.83,0,1.01-.82,1.83-1.83,1.83s-1.83-.82-1.83-1.83Z"/>
              <path class="st4" d="M571.94-143.55c0-1.01.82-1.83,1.83-1.83,1.01,0,1.83.82,1.83,1.83,0,1.01-.82,1.83-1.83,1.83s-1.83-.82-1.83-1.83Z"/>
              <path class="st4" d="M560.6-143.55c0-1.01.82-1.83,1.83-1.83s1.83.82,1.83,1.83c0,1.01-.82,1.83-1.83,1.83-1.01,0-1.83-.82-1.83-1.83Z"/>
            </g>
          </g>
          <g>
            <path class="st4" d="M658.64-149.78c0-1.01.82-1.83,1.83-1.83s1.83.82,1.83,1.83c0,1.01-.82,1.83-1.83,1.83s-1.83-.82-1.83-1.83Z"/>
            <g>
              <path class="st4" d="M647.3-149.78c0-1.01.82-1.83,1.83-1.83,1.01,0,1.83.82,1.83,1.83s-.82,1.83-1.83,1.83-1.83-.82-1.83-1.83Z"/>
              <path class="st4" d="M635.97-149.78c0-1.01.82-1.83,1.83-1.83s1.83.82,1.83,1.83c0,1.01-.82,1.83-1.83,1.83s-1.83-.82-1.83-1.83Z"/>
              <path class="st4" d="M624.63-149.78c0-1.01.82-1.83,1.83-1.83s1.83.82,1.83,1.83c0,1.01-.82,1.83-1.83,1.83s-1.83-.82-1.83-1.83Z"/>
              <path class="st4" d="M613.29-149.78c0-1.01.82-1.83,1.83-1.83,1.01,0,1.83.82,1.83,1.83,0,1.01-.82,1.83-1.83,1.83s-1.83-.82-1.83-1.83Z"/>
              <path class="st4" d="M601.95-149.78c0-1.01.82-1.83,1.83-1.83,1.01,0,1.83.82,1.83,1.83s-.82,1.83-1.83,1.83-1.83-.82-1.83-1.83Z"/>
              <path class="st4" d="M590.61-149.78c0-1.01.82-1.83,1.83-1.83s1.83.82,1.83,1.83-.82,1.83-1.83,1.83-1.83-.82-1.83-1.83Z"/>
              <path class="st4" d="M579.27-149.78c0-1.01.82-1.83,1.83-1.83,1.01,0,1.83.82,1.83,1.83s-.82,1.83-1.83,1.83c-1.01,0-1.83-.82-1.83-1.83Z"/>
              <path class="st4" d="M567.93-149.78c0-1.01.82-1.83,1.83-1.83,1.01,0,1.83.82,1.83,1.83,0,1.01-.82,1.83-1.83,1.83-1.01,0-1.83-.82-1.83-1.83Z"/>
              <path class="st4" d="M556.59-149.78c0-1.01.82-1.83,1.83-1.83,1.01,0,1.83.82,1.83,1.83s-.82,1.83-1.83,1.83-1.83-.82-1.83-1.83Z"/>
            </g>
            <g>
              <path class="st4" d="M651.32-156.88c0-1.01.82-1.83,1.83-1.83s1.83.82,1.83,1.83c0,1.01-.82,1.83-1.83,1.83s-1.83-.82-1.83-1.83Z"/>
              <path class="st4" d="M639.98-156.88c0-1.01.82-1.83,1.83-1.83,1.01,0,1.83.82,1.83,1.83s-.82,1.83-1.83,1.83-1.83-.82-1.83-1.83Z"/>
              <path class="st4" d="M628.64-156.88c0-1.01.82-1.83,1.83-1.83,1.01,0,1.83.82,1.83,1.83,0,1.01-.82,1.83-1.83,1.83s-1.83-.82-1.83-1.83Z"/>
              <path class="st4" d="M617.3-156.88c0-1.01.82-1.83,1.83-1.83s1.83.82,1.83,1.83c0,1.01-.82,1.83-1.83,1.83s-1.83-.82-1.83-1.83Z"/>
              <path class="st4" d="M605.96-156.88c0-1.01.82-1.83,1.83-1.83s1.83.82,1.83,1.83-.82,1.83-1.83,1.83-1.83-.82-1.83-1.83Z"/>
              <path class="st4" d="M594.62-156.88c0-1.01.82-1.83,1.83-1.83s1.83.82,1.83,1.83-.82,1.83-1.83,1.83-1.83-.82-1.83-1.83Z"/>
              <path class="st4" d="M583.28-156.88c0-1.01.82-1.83,1.83-1.83s1.83.82,1.83,1.83c0,1.01-.82,1.83-1.83,1.83-1.01,0-1.83-.82-1.83-1.83Z"/>
              <path class="st4" d="M571.94-156.88c0-1.01.82-1.83,1.83-1.83,1.01,0,1.83.82,1.83,1.83,0,1.01-.82,1.83-1.83,1.83s-1.83-.82-1.83-1.83Z"/>
              <path class="st4" d="M560.6-156.88c0-1.01.82-1.83,1.83-1.83,1.01,0,1.83.82,1.83,1.83,0,1.01-.82,1.83-1.83,1.83s-1.83-.82-1.83-1.83Z"/>
            </g>
          </g>
        </g>
        <g>
          <path class="st0" d="M438.35-163.9h55.46s0,40.37,0,40.37c0,8.44-6.84,15.29-15.29,15.29h-40.17s0-55.65,0-55.65Z"/>
          <path class="st8" d="M552.41-49.44l1.6-26.95-1.6-28.71h0c-30.63,0-55.46,24.92-55.46,55.65h55.46Z"/>
          <path class="st7" d="M552.41-163.9v55.65s-40.17,0-40.17,0c-8.44,0-15.29-6.84-15.29-15.29v-40.37s55.46,0,55.46,0Z"/>
          <path class="st1" d="M483.2-106.67c0-6.75,5.45-12.22,12.18-12.22,6.73,0,12.18,5.47,12.18,12.22,0,6.75-5.45,12.22-12.18,12.22-6.73,0-12.18-5.47-12.18-12.22Z"/>
        </g>
      </g>
      <g>
        <rect class="st7" x="176.71" y="-194.96" width="261.6" height="261.58"/>
        <g>
          <g>
            <path class="st8" d="M438.37,40.09s-10.83-113.56-130.87-93.7l130.87,93.7Z"/>
            <path class="st4" d="M438.37,40.09s-111,26.33-130.86-93.7l130.86,93.7Z"/>
          </g>
          <g>
            <path class="st1" d="M176.64,40.09s10.83-113.56,130.86-93.7L176.64,40.09Z"/>
            <path class="st4" d="M176.64,40.09s110.99,26.33,130.86-93.7L176.64,40.09Z"/>
          </g>
          <g>
            <path class="st1" d="M438.37-66.98s-10.83-113.57-130.87-93.7l130.87,93.7Z"/>
            <path class="st4" d="M438.37-66.98s-111,26.33-130.86-93.7l130.86,93.7Z"/>
          </g>
          <g>
            <path class="st8" d="M176.64-66.98s10.83-113.57,130.86-93.7l-130.86,93.7Z"/>
            <path class="st4" d="M176.64-66.98s110.99,26.33,130.86-93.7l-130.86,93.7Z"/>
          </g>
        </g>
        <rect class="st4" x="305.12" y="-194.96" width="4.78" height="261.58"/>
      </g>
      <rect class="st0" x="-.11" y="-110.03" width="176.76" height="176.76"/>
      <g>
        <path class="st7" d="M98.58-94.95c0-3-2.44-5.45-5.45-5.45-3,0-5.45,2.44-5.45,5.45s2.44,5.45,5.45,5.45c3,0,5.45-2.44,5.45-5.45ZM97.6-94.95c0,2.46-2,4.46-4.46,4.46-2.46,0-4.46-2-4.46-4.46,0-2.46,2-4.46,4.46-4.46,2.46,0,4.46,2,4.46,4.46Z"/>
        <path class="st4" d="M121.16-94.95c0-3-2.44-5.45-5.45-5.45s-5.45,2.44-5.45,5.45c0,3,2.44,5.45,5.45,5.45,3,0,5.45-2.44,5.45-5.45ZM120.17-94.95c0,2.46-2,4.46-4.46,4.46s-4.46-2-4.46-4.46,2-4.46,4.46-4.46c2.46,0,4.46,2,4.46,4.46Z"/>
        <path class="st8" d="M143.74-94.95c0-3-2.44-5.45-5.45-5.45-3,0-5.45,2.44-5.45,5.45s2.44,5.45,5.45,5.45c3,0,5.45-2.44,5.45-5.45ZM142.75-94.95c0,2.46-2,4.46-4.46,4.46-2.46,0-4.46-2-4.46-4.46s2-4.46,4.46-4.46c2.46,0,4.46,2,4.46,4.46Z"/>
        <path class="st1" d="M166.32-94.95c0-3-2.44-5.45-5.45-5.45s-5.45,2.44-5.45,5.45c0,3,2.44,5.45,5.45,5.45,3,0,5.45-2.44,5.45-5.45ZM165.33-94.95c0,2.46-2,4.46-4.46,4.46s-4.46-2-4.46-4.46,2-4.46,4.46-4.46,4.46,2,4.46,4.46Z"/>
        <path class="st1" d="M98.3-72.65c0-3-2.44-5.45-5.45-5.45s-5.45,2.44-5.45,5.45c0,3,2.44,5.45,5.45,5.45,3,0,5.45-2.44,5.45-5.45ZM97.32-72.65c0,2.46-2,4.46-4.46,4.46s-4.46-2-4.46-4.46c0-2.46,2-4.46,4.46-4.46s4.46,2,4.46,4.46Z"/>
        <path class="st7" d="M120.88-72.65c0-3-2.44-5.45-5.45-5.45-3,0-5.45,2.44-5.45,5.45,0,3,2.44,5.45,5.45,5.45,3,0,5.45-2.44,5.45-5.45ZM119.9-72.65c0,2.46-2,4.46-4.46,4.46s-4.46-2-4.46-4.46c0-2.46,2-4.46,4.46-4.46,2.46,0,4.46,2,4.46,4.46Z"/>
        <path class="st4" d="M143.46-72.65c0-3-2.44-5.45-5.45-5.45-3,0-5.45,2.44-5.45,5.45,0,3,2.44,5.45,5.45,5.45s5.45-2.44,5.45-5.45ZM142.48-72.65c0,2.46-2,4.46-4.46,4.46-2.46,0-4.46-2-4.46-4.46,0-2.46,2-4.46,4.46-4.46s4.46,2,4.46,4.46Z"/>
        <path class="st8" d="M166.04-72.65c0-3-2.44-5.45-5.45-5.45s-5.45,2.44-5.45,5.45c0,3,2.44,5.45,5.45,5.45,3,0,5.45-2.44,5.45-5.45ZM165.06-72.65c0,2.46-2,4.46-4.46,4.46-2.46,0-4.46-2-4.46-4.46,0-2.46,2-4.46,4.46-4.46,2.46,0,4.46,2,4.46,4.46Z"/>
        <path class="st8" d="M98.03-50.34c0-3-2.44-5.45-5.45-5.45s-5.45,2.44-5.45,5.45c0,3,2.44,5.45,5.45,5.45,3,0,5.45-2.44,5.45-5.45ZM97.04-50.34c0,2.46-2,4.46-4.46,4.46-2.46,0-4.46-2-4.46-4.46,0-2.46,2-4.46,4.46-4.46,2.46,0,4.46,2,4.46,4.46Z"/>
        <path class="st1" d="M120.61-50.34c0-3-2.44-5.45-5.45-5.45-3,0-5.45,2.44-5.45,5.45,0,3,2.44,5.45,5.45,5.45,3,0,5.45-2.44,5.45-5.45ZM119.62-50.34c0,2.46-2,4.46-4.46,4.46s-4.46-2-4.46-4.46c0-2.46,2-4.46,4.46-4.46s4.46,2,4.46,4.46Z"/>
        <path class="st7" d="M143.19-50.34c0-3-2.44-5.45-5.45-5.45-3,0-5.45,2.44-5.45,5.45s2.44,5.45,5.45,5.45c3,0,5.45-2.44,5.45-5.45ZM142.2-50.34c0,2.46-2,4.46-4.46,4.46-2.46,0-4.46-2-4.46-4.46,0-2.46,2-4.46,4.46-4.46,2.46,0,4.46,2,4.46,4.46Z"/>
        <path class="st4" d="M165.76-50.34c0-3-2.44-5.45-5.45-5.45-3,0-5.45,2.44-5.45,5.45,0,3,2.44,5.45,5.45,5.45,3,0,5.45-2.44,5.45-5.45ZM164.78-50.34c0,2.46-2,4.46-4.46,4.46-2.46,0-4.46-2-4.46-4.46,0-2.46,2-4.46,4.46-4.46,2.46,0,4.46,2,4.46,4.46Z"/>
        <path class="st4" d="M97.75-28.04c0-3-2.44-5.45-5.45-5.45-3,0-5.45,2.44-5.45,5.45,0,3,2.44,5.45,5.45,5.45,3,0,5.45-2.44,5.45-5.45ZM96.77-28.04c0,2.46-2,4.46-4.46,4.46-2.46,0-4.46-2-4.46-4.46,0-2.46,2-4.46,4.46-4.46s4.46,2,4.46,4.46Z"/>
        <path class="st8" d="M120.33-28.04c0-3-2.44-5.45-5.45-5.45-3,0-5.45,2.44-5.45,5.45,0,3,2.44,5.45,5.45,5.45,3,0,5.45-2.44,5.45-5.45ZM119.35-28.04c0,2.46-2,4.46-4.46,4.46-2.46,0-4.46-2-4.46-4.46s2-4.46,4.46-4.46c2.46,0,4.46,2,4.46,4.46Z"/>
        <path class="st1" d="M142.91-28.04c0-3-2.44-5.45-5.45-5.45s-5.45,2.44-5.45,5.45c0,3,2.44,5.45,5.45,5.45s5.45-2.44,5.45-5.45ZM141.93-28.04c0,2.46-2,4.46-4.46,4.46-2.46,0-4.46-2-4.46-4.46s2-4.46,4.46-4.46c2.46,0,4.46,2,4.46,4.46Z"/>
        <path class="st7" d="M165.49-28.04c0-3-2.44-5.45-5.45-5.45-3,0-5.45,2.44-5.45,5.45,0,3,2.44,5.45,5.45,5.45,3,0,5.45-2.44,5.45-5.45ZM164.51-28.04c0,2.46-2,4.46-4.46,4.46-2.46,0-4.46-2-4.46-4.46s2-4.46,4.46-4.46,4.46,2,4.46,4.46Z"/>
      </g>
      <g>
        <rect class="st8" x="36.16" y="-14.89" width="140.17" height="69.63"/>
        <circle class="st7" cx="44.86" cy="20.03" r="35.66"/>
        <path class="st4" d="M74.82,20.03c0-16.52-13.44-29.96-29.95-29.96-16.52,0-29.95,13.44-29.95,29.96,0,16.52,13.44,29.95,29.95,29.95,16.52,0,29.95-13.44,29.95-29.95ZM72.57,20.03c0,15.28-12.43,27.71-27.71,27.71-15.28,0-27.71-12.43-27.71-27.71,0-15.28,12.43-27.71,27.71-27.71,15.28,0,27.71,12.43,27.71,27.71Z"/>
        <path class="st4" d="M64.7,20.03c0-10.94-8.9-19.84-19.84-19.84-10.94,0-19.84,8.9-19.84,19.84,0,10.94,8.9,19.84,19.84,19.84,10.94,0,19.84-8.9,19.84-19.84ZM62.45,20.03c0,9.7-7.89,17.59-17.59,17.59-9.7,0-17.59-7.89-17.59-17.59,0-9.7,7.89-17.59,17.59-17.59,9.7,0,17.59,7.89,17.59,17.59Z"/>
        <path class="st4" d="M54.51,20.03c0-5.32-4.33-9.64-9.64-9.64s-9.64,4.33-9.64,9.64c0,5.32,4.33,9.64,9.64,9.64s9.64-4.33,9.64-9.64ZM52.26,20.03c0,4.08-3.32,7.4-7.4,7.4-4.08,0-7.4-3.32-7.4-7.4,0-4.08,3.32-7.4,7.4-7.4,4.08,0,7.4,3.32,7.4,7.4Z"/>
        <rect class="st7" x="161.6" y="1.24" width="9.13" height="2.24"/>
        <rect class="st7" x="110.92" y="1.24" width="36.41" height="2.24"/>
        <rect class="st7" x="85.5" y="1.24" width="5" height="2.24"/>
        <rect class="st4" x="140.11" y="18.06" width="31.74" height="2.24"/>
        <rect class="st4" x="86.63" y="18.06" width="32.89" height="2.24"/>
        <rect class="st1" x="154.92" y="38.24" width="15.81" height="2.24"/>
        <rect class="st1" x="114.23" y="38.24" width="26.55" height="2.24"/>
        <rect class="st1" x="85.5" y="38.24" width="10.64" height="2.24"/>
      </g>
      <rect class="st4" x="29.44" y="-123.23" width="28.03" height="28.03" rx="-33.58" ry="-33.58"/>
      <g>
        <path class="st7" d="M150.71-194.44c0-33.79-27.49-61.29-61.29-61.29-33.79,0-61.28,27.49-61.28,61.29,0,33.79,27.49,61.29,61.29,61.29,33.79,0,61.28-27.49,61.28-61.29ZM143.99-194.44c0,30.08-24.47,54.56-54.56,54.56h0c-30.08,0-54.56-24.47-54.56-54.56,0-30.08,24.47-54.56,54.56-54.56,30.08,0,54.56,24.47,54.56,54.56Z"/>
        <path class="st0" d="M136.78-194.44c0-26.11-21.24-47.35-47.35-47.35-26.11,0-47.35,21.24-47.35,47.35,0,26.11,21.24,47.35,47.35,47.35,26.11,0,47.35-21.24,47.35-47.35ZM133.42-194.44c0,24.25-19.73,43.99-43.99,43.99h0c-24.25,0-43.99-19.73-43.99-43.99,0-24.25,19.73-43.99,43.99-43.99,24.25,0,43.99,19.73,43.99,43.99Z"/>
        <path class="st4" d="M130.13-194.44c0-22.44-18.26-40.7-40.7-40.7s-40.7,18.26-40.7,40.7c0,22.44,18.26,40.7,40.7,40.7,22.44,0,40.7-18.26,40.7-40.7ZM127.24-194.44c0,20.85-16.96,37.81-37.81,37.81h0c-20.85,0-37.81-16.96-37.81-37.81,0-20.85,16.96-37.81,37.81-37.81s37.81,16.96,37.81,37.81Z"/>
        <path class="st8" d="M89.43-181.54h0c-7.09,0-12.9-5.8-12.9-12.9h0c0-7.09,5.8-12.9,12.9-12.9h0c7.09,0,12.9,5.8,12.9,12.9h0c0,7.09-5.8,12.9-12.9,12.9Z"/>
      </g>
      <path class="st0" d="M165.12-129.96c0-6.18-5.03-11.21-11.21-11.21s-11.21,5.03-11.21,11.21c0,6.18,5.03,11.21,11.21,11.21,6.18,0,11.21-5.03,11.21-11.21ZM162.88-129.96c0,4.95-4.02,8.97-8.97,8.97-4.95,0-8.97-4.02-8.97-8.97,0-4.95,4.02-8.97,8.97-8.97s8.97,4.02,8.97,8.97Z"/>
      <path class="st4" d="M159.6-152.47c0-3.76-3.06-6.81-6.81-6.81-3.76,0-6.81,3.06-6.81,6.81,0,3.76,3.06,6.81,6.81,6.81,3.76,0,6.81-3.06,6.81-6.81ZM157.35-152.47c0,2.52-2.05,4.57-4.57,4.57-2.52,0-4.57-2.05-4.57-4.57,0-2.52,2.05-4.57,4.57-4.57,2.52,0,4.57,2.05,4.57,4.57Z"/>
      <path class="st4" d="M137.17-127.8c0-3.76-3.06-6.81-6.81-6.81-3.76,0-6.81,3.06-6.81,6.81,0,3.76,3.06,6.81,6.81,6.81,3.76,0,6.81-3.06,6.81-6.81ZM134.93-127.8c0,2.52-2.05,4.57-4.57,4.57-2.52,0-4.57-2.05-4.57-4.57s2.05-4.57,4.57-4.57c2.52,0,4.57,2.05,4.57,4.57Z"/>
      <g>
        <rect class="st7" x="783.73" y="-107.45" width="176.27" height="173.68"/>
        <g>
          <g>
            <g>
              <rect class="st1" x="890.69" y="-22.63" width="17.56" height="53.92" transform="translate(260.15 637.06) rotate(-44.98)"/>
              <rect class="st1" x="872.51" y="-4.44" width="53.92" height="17.56" transform="translate(260.62 637.53) rotate(-45.02)"/>
            </g>
            <g>
              <rect class="st8" x="840.38" y="-22.63" width="17.56" height="53.92" transform="translate(245.43 601.5) rotate(-44.98)"/>
              <rect class="st8" x="822.2" y="-4.44" width="53.92" height="17.56" transform="translate(245.86 601.93) rotate(-45.02)"/>
            </g>
          </g>
          <g>
            <g>
              <rect class="st4" x="890.69" y="-72.51" width="17.56" height="53.92" transform="translate(295.41 622.46) rotate(-44.98)"/>
              <rect class="st4" x="872.51" y="-54.33" width="53.92" height="17.56" transform="translate(295.9 622.9) rotate(-45.02)"/>
            </g>
            <g>
              <rect class="st0" x="840.38" y="-72.51" width="17.56" height="53.92" transform="translate(280.7 586.9) rotate(-44.98)"/>
              <rect class="st0" x="822.2" y="-54.33" width="53.92" height="17.56" transform="translate(281.15 587.31) rotate(-45.02)"/>
            </g>
          </g>
        </g>
      </g>
      <g>
        <rect class="st1" x="1481.7" y="-24.98" width="92.64" height="91.7"/>
        <g>
          <path class="st7" d="M1560.54,21.5l-31.89-32-31.89,32,31.89,32,31.89-32ZM1528.65-3.31l24.72,24.81-24.72,24.81-24.72-24.81,24.72-24.81Z"/>
          <polygon class="st0" points="1542.56 21.5 1528.65 35.46 1514.74 21.5 1528.65 7.54 1542.56 21.5"/>
          <path class="st2" d="M1573.26,21.51l-44.6-46.07-45.91,46.07,45.91,44.75,44.6-44.76ZM1528.64-20.94l41.07,42.42-41.07,41.21-42.28-41.21,42.28-42.42Z"/>
          <path class="st8" d="M1573.26,21.51l-44.6-46.07-45.91,46.07,45.91,44.75,44.6-44.76ZM1528.64-20.94l41.07,42.42-41.07,41.21-42.28-41.21,42.28-42.42Z"/>
        </g>
      </g>
      <g>
        <g>
          <rect class="st1" x="1136.27" y="-56.04" width="115.13" height="122.76"/>
          <polygon class="st0" points="1136.27 -56.04 1251.39 66.72 1251.39 -56.04 1136.27 -56.04"/>
          <path class="st3" d="M1136.27,7.27v18.31c22.73,0,41.15,18.42,41.15,41.14h18.32c0-32.83-26.63-59.45-59.47-59.45Z"/>
          <path class="st7" d="M1136.27,25.4v15.88c14.06,0,25.45,11.39,25.45,25.44h15.89c0-22.82-18.51-41.32-41.34-41.32Z"/>
          <path class="st8" d="M1136.27,66.72h25.54c0-14.1-11.43-25.53-25.54-25.53h0v25.53Z"/>
        </g>
        <g>
          <rect class="st8" x="1366.52" y="-56.04" width="115.14" height="122.76"/>
          <polygon class="st3" points="1468.08 8.47 1413.59 66.72 1377.28 66.72 1431.77 8.47 1468.08 8.47"/>
        </g>
        <polygon class="st1" points="1481.65 -56.04 1366.52 66.72 1308.96 66.72 1366.52 5.35 1366.52 5.34 1424.08 -56.04 1481.65 -56.04"/>
        <g>
          <rect class="st0" x="1251.39" y="-56.04" width="115.12" height="122.76"/>
          <polygon class="st1" points="1366.52 -56.04 1251.39 -56.04 1251.39 66.72 1366.52 -56.04"/>
          <polygon class="st3" points="1308.96 5.34 1366.52 5.34 1366.52 -56.04 1308.96 5.34"/>
          <polygon class="st7" points="1366.52 5.35 1366.52 66.72 1308.96 66.72 1366.52 5.35"/>
          <polygon class="st1" points="1332.75 -6.12 1366.52 -6.12 1366.52 -42.13 1332.75 -6.12"/>
        </g>
        <g>
          <ellipse class="st3" cx="1251.39" cy="-31.99" rx="15.39" ry="15.39" transform="translate(.06 2.13) rotate(-.1)"/>
          <ellipse class="st7" cx="1251.39" cy="5.34" rx="11.91" ry="11.9"/>
          <circle class="st8" cx="1251.39" cy="37.97" r="9.38" transform="translate(-.1 3.44) rotate(-.16)"/>
        </g>
      </g>
      <g>
        <g>
          <rect class="st4" x="1574.34" y="-25.35" width="84.51" height="91.62"/>
          <path class="st0" d="M1633.31,66.27h-58.97s0-63.93,0-63.93h30c16,0,28.97,12.97,28.97,28.97v34.96Z"/>
          <g>
            <path class="st7" d="M1598.11,11.57c-7.18-7.8-7.51-19.34-7.51-19.34,0,0,11.31,1.1,18.48,8.89,7.18,7.8,7.51,19.34,7.51,19.34,0,0-11.31-1.1-18.48-8.89Z"/>
            <path class="st1" d="M1635.08,11.57c7.18-7.8,7.51-19.34,7.51-19.34,0,0-11.31,1.1-18.48,8.89-7.18,7.8-7.51,19.34-7.51,19.34,0,0,11.31-1.1,18.48-8.89Z"/>
            <path class="st1" d="M1598.11,29.35c-7.18,7.8-7.51,19.34-7.51,19.34,0,0,11.31-1.1,18.48-8.89,7.18-7.8,7.51-19.34,7.51-19.34,0,0-11.31,1.1-18.48,8.89Z"/>
            <path class="st7" d="M1635.08,29.35c7.18,7.8,7.51,19.34,7.51,19.34,0,0-11.31-1.1-18.48-8.89-7.18-7.8-7.51-19.34-7.51-19.34,0,0,11.31,1.1,18.48,8.89Z"/>
          </g>
        </g>
        <g>
          <polygon class="st3" points="1701.1 39.53 1701.1 20.46 1658.85 66.27 1676.44 66.27 1701.1 39.53"/>
          <polygon class="st7" points="1701.1 39.53 1701.1 20.46 1743.36 66.27 1725.77 66.27 1701.1 39.53"/>
          <polygon class="st0" points="1743.36 66.27 1701.1 20.46 1743.36 -25.35 1743.36 66.27"/>
          <polygon class="st8" points="1658.85 66.27 1658.85 -25.35 1743.36 -25.35 1658.85 66.27"/>
          <polygon class="st3" points="1675.66 -18.36 1701.1 9.22 1726.54 -18.36 1675.66 -18.36"/>
          <path class="st7" d="M1687.69,20.46c0,4.33-3.45,7.84-7.71,7.84s-7.71-3.51-7.71-7.84c0-4.33,3.45-7.84,7.71-7.84,4.26,0,7.71,3.51,7.71,7.84Z"/>
          <ellipse class="st1" cx="1722.23" cy="20.46" rx="7.71" ry="7.84"/>
          <polygon class="st0" points="1701.1 39.53 1701.1 66.27 1676.44 66.27 1701.1 39.53"/>
          <polygon class="st8" points="1701.1 39.53 1701.1 66.27 1725.77 66.27 1701.1 39.53"/>
        </g>
      </g>
      <rect class="st7" x="1743.36" y="-110.5" width="176.76" height="177.14"/>
      <path class="st1" d="M1743.36-110.5h176.76s0,108.07,0,108.07c0,37.93-30.75,68.69-68.69,68.69h-108.07s0-176.76,0-176.76Z"/>
      <rect class="st4" x="1862.53" y="-124.74" width="28.03" height="28.03" rx="-34.34" ry="-34.34"/>
      <g>
        <path class="st7" d="M1769.29-25.51c0,33.79,27.49,61.29,61.29,61.29,33.79,0,61.28-27.49,61.28-61.29,0-33.79-27.49-61.29-61.29-61.29-33.79,0-61.28,27.49-61.28,61.29ZM1776.01-25.51c0-30.08,24.47-54.56,54.56-54.56h0c30.08,0,54.56,24.47,54.56,54.56s-24.47,54.56-54.56,54.56c-30.08,0-54.56-24.47-54.56-54.56Z"/>
        <path class="st0" d="M1783.22-25.51c0,26.11,21.24,47.35,47.35,47.35,26.11,0,47.35-21.24,47.35-47.35s-21.24-47.35-47.35-47.35c-26.11,0-47.35,21.24-47.35,47.35ZM1786.58-25.51c0-24.25,19.73-43.99,43.99-43.99h0c24.25,0,43.99,19.73,43.99,43.99,0,24.25-19.73,43.99-43.99,43.99-24.25,0-43.99-19.73-43.99-43.99Z"/>
        <path class="st4" d="M1789.87-25.51c0,22.44,18.26,40.7,40.7,40.7,22.44,0,40.7-18.26,40.7-40.7,0-22.44-18.26-40.7-40.7-40.7-22.44,0-40.7,18.26-40.7,40.7ZM1792.76-25.51c0-20.85,16.96-37.81,37.81-37.81h0c20.85,0,37.81,16.96,37.81,37.81,0,20.85-16.96,37.81-37.81,37.81-20.85,0-37.81-16.96-37.81-37.81Z"/>
        <path class="st8" d="M1830.57-38.4h0c7.09,0,12.9,5.8,12.9,12.9h0c0,7.09-5.8,12.9-12.9,12.9h0c-7.09,0-12.9-5.8-12.9-12.9h0c0-7.09,5.8-12.9,12.9-12.9Z"/>
      </g>
      <path class="st0" d="M1754.88-89.98c0,6.18,5.03,11.21,11.21,11.21s11.21-5.03,11.21-11.21-5.03-11.21-11.21-11.21-11.21,5.03-11.21,11.21ZM1757.12-89.98c0-4.95,4.02-8.97,8.97-8.97s8.97,4.02,8.97,8.97-4.02,8.97-8.97,8.97c-4.95,0-8.97-4.02-8.97-8.97Z"/>
      <path class="st4" d="M1760.4-67.47c0,3.76,3.06,6.81,6.81,6.81,3.76,0,6.81-3.06,6.81-6.81,0-3.76-3.06-6.81-6.81-6.81s-6.81,3.06-6.81,6.81ZM1762.65-67.47c0-2.52,2.05-4.57,4.57-4.57,2.52,0,4.57,2.05,4.57,4.57,0,2.52-2.05,4.57-4.57,4.57-2.52,0-4.57-2.05-4.57-4.57Z"/>
      <path class="st4" d="M1782.83-92.14c0,3.76,3.06,6.81,6.81,6.81s6.81-3.06,6.81-6.81c0-3.76-3.06-6.81-6.81-6.81-3.76,0-6.81,3.06-6.81,6.81ZM1785.07-92.14c0-2.52,2.05-4.57,4.57-4.57,2.52,0,4.57,2.05,4.57,4.57s-2.05,4.57-4.57,4.57c-2.52,0-4.57-2.05-4.57-4.57Z"/>
      <path class="st4" d="M1903.29-76.3c.93,0,1.68.75,1.68,1.68V-18.91c0,37.82-30.77,68.6-68.6,68.6h-55.71c-.93,0-1.68-.75-1.68-1.68s.75-1.68,1.68-1.68h55.71c35.97,0,65.23-29.26,65.23-65.23v-55.71c0-.93.75-1.68,1.68-1.68Z"/>
      <rect class="st4" x="960" y="-110.9" width="176.25" height="176.25"/>
      <rect class="st7" x="960" y="-110.9" width="176.25" height="90.11"/>
      <g>
        <path class="st6" d="M970.02-84.09s33.09-4.86,35.47,29.45c0,0-32.68,7.26-35.47-29.45Z"/>
        <path class="st6" d="M1039.04-84.09s-33.09-4.86-35.47,29.45c0,0,32.68,7.26,35.47-29.45Z"/>
        <rect class="st6" x="1002.5" y="-61.3" width="3.05" height="40.25"/>
      </g>
      <g>
        <path class="st1" d="M982.16-42.92c-12.15,0-22,9.85-22,22h44c0-12.15-9.85-22-22-22Z"/>
        <path class="st0" d="M1027.01-42.3c-11.81,0-21.38,9.57-21.38,21.38h42.76c0-11.81-9.57-21.38-21.38-21.38Z"/>
        <path class="st8" d="M1070.35-42.3c-11.81,0-21.38,9.57-21.38,21.38h42.76c0-11.81-9.57-21.38-21.38-21.38Z"/>
        <path class="st1" d="M1114.76-42.3c-11.81,0-21.38,9.57-21.38,21.38h42.76c0-11.81-9.57-21.38-21.38-21.38Z"/>
        <path class="st0" d="M981.97,1.95c-11.73,0-21.23,9.51-21.23,21.23h42.46c0-11.73-9.51-21.23-21.23-21.23Z"/>
        <path class="st8" d="M1026.07,1.95c-11.73,0-21.23,9.51-21.23,21.23h42.46c0-11.73-9.51-21.23-21.23-21.23Z"/>
        <path class="st1" d="M1070.17,1.95c-11.73,0-21.23,9.51-21.23,21.23h42.46c0-11.73-9.51-21.23-21.23-21.23Z"/>
        <path class="st8" d="M1114.26,1.95c-11.73,0-21.23,9.51-21.23,21.23h42.46c0-11.73-9.51-21.23-21.23-21.23Z"/>
      </g>
    </g>
    <g>
      <path class="st7" d="M1060.15-6.32s33.09-4.86,35.47,29.45c0,0-32.68,7.26-35.47-29.45Z"/>
      <path class="st7" d="M1129.17-6.32s-33.09-4.86-35.47,29.45c0,0,32.68,7.26,35.47-29.45Z"/>
      <rect class="st7" x="1093.11" y="16.47" width="3.26" height="49.18"/>
    </g>
    <g>
      <path class="st8" d="M981.75,45.25c-11.86,0-21.47,9.61-21.47,21.47h42.95c0-11.86-9.61-21.47-21.47-21.47Z"/>
      <path class="st1" d="M1026.34,45.25c-11.86,0-21.47,9.61-21.47,21.47h42.95c0-11.86-9.61-21.47-21.47-21.47Z"/>
      <path class="st8" d="M1070.94,45.25c-11.86,0-21.47,9.61-21.47,21.47h42.95c0-11.86-9.61-21.47-21.47-21.47Z"/>
      <path class="st0" d="M1115.54,45.25c-11.86,0-21.47,9.61-21.47,21.47h42.95c0-11.86-9.61-21.47-21.47-21.47Z"/>
    </g>
  </g>
</svg>